<svg xmlns="http://www.w3.org/2000/svg" xmlns:xlink="http://www.w3.org/1999/xlink" viewBox="0 0 99.21 111.77"><defs><style>.cls-1{fill:none;}.cls-2{fill:#6f6f6f;}.cls-3{clip-path:url(#clip-path);}.cls-4{fill:#ffa840;}</style><clipPath id="clip-path"><circle class="cls-1" cx="50.2" cy="35.02" r="33.53"/></clipPath></defs><title>account</title><g id="Layer_2" data-name="Layer 2"><g id="Layer_1-2" data-name="Layer 1"><path class="cls-2" d="M86.53,111.77H12.68C5.69,111.77,0,105.46,0,97.7V96.62c0-14,5-27.19,13.68-36.2a2.5,2.5,0,0,1,3.6,3.48C9.48,72,5,83.91,5,96.62V97.7c0,5,3.45,9.07,7.68,9.07H86.53c4.24,0,7.68-4.07,7.68-9.07V96.62c0-12.71-4.48-24.63-12.28-32.72a2.5,2.5,0,1,1,3.59-3.48c8.7,9,13.69,22.21,13.69,36.2V97.7C99.21,105.46,93.52,111.77,86.53,111.77Z"/><g class="cls-3"><circle class="cls-4" cx="56.92" cy="34.4" r="29.75"/></g><path class="cls-2" d="M49.61,72.06a36,36,0,1,1,36-36A36.07,36.07,0,0,1,49.61,72.06ZM49.61,5a31,31,0,1,0,31,31A31.07,31.07,0,0,0,49.61,5Z"/></g></g></svg>