<svg id="Layer_1" data-name="Layer 1" xmlns="http://www.w3.org/2000/svg" viewBox="0 0 64.26 64.73"><defs><style>.cls-1{fill:#ffa840;}.cls-2{fill:#6f6f6f;}</style></defs><polygon class="cls-1" points="32.35 51.71 30.35 53.33 32.18 59.24 31.27 64.09 34.82 64.09 33.8 59.75 35.67 55.07 32.35 51.71"/><path class="cls-2" d="M32.13,51.3a1.46,1.46,0,0,1-.7-.18l-5.08-2.94A6.68,6.68,0,0,1,23,42.43v-.71C17.48,38,17.73,30,17.74,29.65a1.4,1.4,0,1,1,2.8.12c0,.07-.2,7.31,4.57,9.94a1.4,1.4,0,0,1,.72,1.23v1.49a3.87,3.87,0,0,0,1.92,3.33l4.38,2.53,4.38-2.53a3.88,3.88,0,0,0,1.92-3.33V40.94a1.42,1.42,0,0,1,.72-1.23c4.78-2.63,4.57-9.87,4.57-9.95a1.4,1.4,0,0,1,1.35-1.45,1.39,1.39,0,0,1,1.45,1.34c0,.36.26,8.36-5.29,12.07v.71a6.66,6.66,0,0,1-3.32,5.75l-5.08,2.94A1.43,1.43,0,0,1,32.13,51.3Z"/><path class="cls-2" d="M38.09,57.31a1.39,1.39,0,0,1-.92-.35l-5-4.39L27.1,57a1.4,1.4,0,0,1-1.93-.08l-5.54-5.67a1.4,1.4,0,0,1-.35-1.36,27.44,27.44,0,0,1,4-8.27,1.4,1.4,0,0,1,2.23,1.69,25.33,25.33,0,0,0-3.34,6.57l4,4.14,5-4.32a1.4,1.4,0,0,1,1.84,0L38,54l4.05-4.14a25.54,25.54,0,0,0-3.35-6.57A1.4,1.4,0,0,1,41,41.58a27.55,27.55,0,0,1,4,8.27,1.39,1.39,0,0,1-.34,1.36l-5.55,5.67A1.42,1.42,0,0,1,38.09,57.31Z"/><path class="cls-2" d="M1.4,64.73A1.4,1.4,0,0,1,0,63.33V59.81a8.8,8.8,0,0,1,6-8.35l15.08-5.11A1.4,1.4,0,0,1,22,49L6.89,54.11a6,6,0,0,0-4.09,5.7v3.52A1.4,1.4,0,0,1,1.4,64.73Z"/><path class="cls-2" d="M62.86,63.88a1.4,1.4,0,0,1-1.4-1.4V59.81a6,6,0,0,0-4.09-5.7L42.3,49a1.39,1.39,0,0,1-.88-1.77,1.4,1.4,0,0,1,1.78-.88l15.07,5.11a8.79,8.79,0,0,1,6,8.35v2.67A1.4,1.4,0,0,1,62.86,63.88Z"/><path class="cls-2" d="M29.46,64.41a1.64,1.64,0,0,1-.37,0,1.4,1.4,0,0,1-1-1.72l.9-3.3-2.2-4.46A1.39,1.39,0,0,1,27.44,53a1.41,1.41,0,0,1,1.88.63l2.43,4.94a1.33,1.33,0,0,1,.1,1l-1,3.82A1.4,1.4,0,0,1,29.46,64.41Z"/><path class="cls-2" d="M34.82,64.54a1.41,1.41,0,0,1-1.35-1l-1.06-3.94a1.38,1.38,0,0,1,.1-1L35,53.64a1.4,1.4,0,0,1,2.51,1.24l-2.21,4.46.92,3.43a1.4,1.4,0,0,1-1,1.72A1.64,1.64,0,0,1,34.82,64.54Z"/><path class="cls-2" d="M45.12,33.24A1.41,1.41,0,0,1,43.72,32,1.4,1.4,0,0,1,45,30.45c.31,0,2.85-.4,3.12-3.7.1-1.18-.14-1.63-.24-1.7a1.55,1.55,0,0,0-1,.11A1.41,1.41,0,0,1,45,23.34a13.17,13.17,0,0,0,.94-5.52c0-.4,0-.82,0-1.28a13.8,13.8,0,0,0-27.6.06c-.07,3,0,4.39,1,6.75a1.4,1.4,0,0,1-1.87,1.81,1.56,1.56,0,0,0-1.05-.11c-.13.09-.33.56-.24,1.7.28,3.31,2.83,3.67,3.12,3.7A1.4,1.4,0,0,1,19,33.24,6.44,6.44,0,0,1,13.36,27c-.17-2,.31-3.45,1.42-4.23a3.07,3.07,0,0,1,1.19-.5,18.59,18.59,0,0,1-.43-5.7,16.6,16.6,0,0,1,33.19,0c0,.49,0,.91,0,1.3a19.91,19.91,0,0,1-.43,4.36,3,3,0,0,1,1.22.5c1.11.78,1.59,2.2,1.42,4.23a6.43,6.43,0,0,1-5.67,6.25Z"/><path class="cls-2" d="M46.48,20.84a1.4,1.4,0,0,1-1.24-.75,47,47,0,0,0-4.38-4.44,1.63,1.63,0,0,1-.17-.2c-1.15-1.56-5.45-.95-7.35-.41A9.65,9.65,0,0,1,25,13.62a14.17,14.17,0,0,1-6.79,6.64,1.4,1.4,0,1,1-1.11-2.57c.09,0,4.94-2.23,5.83-6.76a1.4,1.4,0,0,1,1-1.08,1.38,1.38,0,0,1,1.42.43,7.39,7.39,0,0,0,7.19,2.07c.78-.22,7.62-2.07,10.29,1.33,1.35,1.25,4.31,4.07,4.86,5.1a1.42,1.42,0,0,1-1.24,2.06Z"/></svg>