<svg xmlns="http://www.w3.org/2000/svg" viewBox="0 0 104.91 89.1"><defs><style>.cls-1{fill:#ffa840;}.cls-2{fill:#6f6f6f;}</style></defs><title>business-insurance</title><g id="Layer_2" data-name="Layer 2"><g id="Layer_1-2" data-name="Layer 1"><path class="cls-1" d="M61.94,44.78c-1.12-.19-1.12,0-1.12-.19,0-2.25-.18-7.71-3.3-7.71H47.6c-3.13,0-2.21,5.46-2.21,7.71,0,.23,0-.22,0,0l-36.34.19V24.27a8.36,8.36,0,0,1,8.34-8.33H96.26a8.36,8.36,0,0,1,8.33,8.33V44.78Z"/><path class="cls-2" d="M101.76,17.52a10.59,10.59,0,0,0-7.63-3.28H76V9a9,9,0,0,0-9-9H37.85a9,9,0,0,0-9,9v5.25H10.78a10.61,10.61,0,0,0-7.64,3.28A11.21,11.21,0,0,0,0,25.32V78a11.24,11.24,0,0,0,3.14,7.81,10.64,10.64,0,0,0,7.64,3.27H94.13a10.62,10.62,0,0,0,7.63-3.27A11.2,11.2,0,0,0,104.91,78V25.32A11.18,11.18,0,0,0,101.76,17.52ZM32.8,9a5.07,5.07,0,0,1,5.05-5.05h29.2A5.05,5.05,0,0,1,72.1,9v5.25H32.8ZM6,20.26a6.66,6.66,0,0,1,4.81-2.08H94.13a6.62,6.62,0,0,1,4.8,2.08,7.28,7.28,0,0,1,2,5.06v16H61.81V38.87a4.94,4.94,0,0,0-4.93-4.93H48a4.93,4.93,0,0,0-4.92,4.93v2.46H3.94v-16A7.27,7.27,0,0,1,6,20.26ZM48,48.72a1,1,0,0,1-.69-.29,1,1,0,0,1-.3-.7V38.87a1,1,0,0,1,.3-.7,1,1,0,0,1,.69-.29h8.86a1,1,0,0,1,.7.29,1,1,0,0,1,.29.7v8.86a1,1,0,0,1-.29.7,1,1,0,0,1-.7.29ZM98.93,83.09a6.65,6.65,0,0,1-4.8,2.07H10.78A6.69,6.69,0,0,1,6,83.09a7.3,7.3,0,0,1-2-5.07V45.27H43.1v2.46A4.93,4.93,0,0,0,48,52.66h8.86a4.94,4.94,0,0,0,4.93-4.93V45.27H101V78A7.3,7.3,0,0,1,98.93,83.09Z"/></g></g></svg>