<svg id="button-appstore" xmlns="http://www.w3.org/2000/svg" width="116.569" height="38.131"><path id="Path_91" data-name="Path 91" d="M116.569 32.978a5.153 5.153 0 0 1-5.153 5.153H5.153A5.153 5.153 0 0 1 0 32.978V5.153A5.153 5.153 0 0 1 5.153 0h106.263a5.153 5.153 0 0 1 5.153 5.153z" fill="#231f20"/><path id="Path_68" data-name="Path 68" d="M57.93 67.405a19.186 19.186 0 0 1-1.73 3.238c-1.135 1.714-2.725 3.86-4.682 3.86-1.748.016-2.2-1.135-4.571-1.135S44.075 74.5 42.326 74.5c-1.957-.014-3.47-1.932-4.587-3.647-3.152-4.8-3.481-10.424-1.537-13.417a6.977 6.977 0 0 1 5.606-3.37c2.084 0 3.406 1.135 5.12 1.135 1.673 0 2.693-1.135 5.1-1.135a6.814 6.814 0 0 1 5.129 2.709 5.87 5.87 0 0 0 .773 10.63z" transform="translate(-27.05 -41.19)" fill="#fff"/><path id="Path_69" data-name="Path 69" d="M87.752 30.865a5.857 5.857 0 0 0 1.3-4.335 6.369 6.369 0 0 0-4.087 2.2 5.44 5.44 0 0 0-1.335 4.228 5.381 5.381 0 0 0 4.122-2.093z" transform="translate(-64.91 -19.423)" fill="#fff"/><path id="Path_70" data-name="Path 70" d="M162.962 68.59l-4.512 13.283h2.066l1.346-4.087h4.369l1.385 4.087h2.123L165.2 68.59zm1.063 2.184c.152.593.318 1.208.529 1.873l1.222 3.529h-3.46l1.2-3.544c.184-.579.354-1.201.508-1.858z" transform="translate(-123.107 -52.202)" fill="#fff"/><path id="Path_71" data-name="Path 71" d="M216.483 83.76a3.769 3.769 0 0 0-3.195 1.533l-.079-1.322h-1.839v.168c.054.824.077 1.73.077 3.029v10.238h2.01v-4.768a3.529 3.529 0 0 0 2.747 1.181 4.144 4.144 0 0 0 3.045-1.294 5.489 5.489 0 0 0 1.344-3.86 5.356 5.356 0 0 0-1.167-3.531 3.824 3.824 0 0 0-2.943-1.374zm-.5 1.664c1.792 0 2.593 1.66 2.593 3.3 0 2.121-1.024 3.44-2.67 3.44a2.436 2.436 0 0 1-2.368-1.864 2.56 2.56 0 0 1-.07-.652v-1.612a3.03 3.03 0 0 1 .064-.495 1.031 1.031 0 0 1 .029-.163 2.545 2.545 0 0 1 2.425-1.953z" transform="translate(-164.207 -64.139)" fill="#fff"/><path id="Path_72" data-name="Path 72" d="M262.1 83.76a3.769 3.769 0 0 0-3.195 1.533l-.091-1.322H257v.168c.055.824.077 1.73.077 3.029v10.238h2.01v-4.768a3.529 3.529 0 0 0 2.747 1.181 4.148 4.148 0 0 0 3.047-1.294 5.5 5.5 0 0 0 1.344-3.86 5.345 5.345 0 0 0-1.169-3.531 3.822 3.822 0 0 0-2.956-1.374zm-.5 1.664c1.792 0 2.593 1.66 2.593 3.3 0 2.121-1.024 3.44-2.67 3.44a2.436 2.436 0 0 1-2.368-1.864 2.56 2.56 0 0 1-.07-.652v-1.613a2.952 2.952 0 0 1 .064-.5.959.959 0 0 1 .03-.161 2.543 2.543 0 0 1 2.421-1.95z" transform="translate(-199.656 -64.138)" fill="#fff"/><path id="Path_73" data-name="Path 73" d="M320.294 73.5c-1.876-.727-2.477-1.3-2.477-2.352 0-.888.706-1.785 2.284-1.785a4.568 4.568 0 0 1 2.359.593l.17.1.568-1.678-.111-.066a5.823 5.823 0 0 0-2.927-.656c-2.564 0-4.353 1.512-4.353 3.678 0 1.746 1.122 2.968 3.529 3.842 1.705.638 2.341 1.29 2.341 2.409 0 1.267-.979 2.044-2.554 2.044a5.5 5.5 0 0 1-2.9-.822l-.175-.111-.54 1.717.1.066a6.9 6.9 0 0 0 3.406.874c3.454 0 4.68-2.107 4.68-3.91-.01-1.843-.994-2.992-3.4-3.943z" transform="translate(-245.099 -51.485)" fill="#fff"/><path id="Path_74" data-name="Path 74" d="M355.815 74.61l-1.971.62v1.67H352.4v1.6h1.444v4.92a3.764 3.764 0 0 0 .695 2.55 2.577 2.577 0 0 0 1.944.763 4.735 4.735 0 0 0 1.553-.241l.114-.041-.1-1.61-.193.059a3.026 3.026 0 0 1-.935.109c-.779 0-1.11-.493-1.11-1.648v-4.855h2.425V76.9h-2.425z" transform="translate(-273.728 -56.869)" fill="#fff"/><path id="Path_75" data-name="Path 75" d="M383.818 83.753c-2.811 0-4.768 2.1-4.768 5.1 0 2.913 1.9 4.95 4.623 4.95h.018a4.734 4.734 0 0 0 4.768-5.123 5.086 5.086 0 0 0-1.281-3.556 4.473 4.473 0 0 0-3.36-1.371zm-.059 1.589c1.816 0 2.632 1.762 2.632 3.406 0 2.014-1.124 3.476-2.67 3.476h-.02c-1.521-.016-2.618-1.444-2.618-3.422 0-1.726.822-3.463 2.679-3.463z" transform="translate(-294.475 -63.949)" fill="#fff"/><path id="Path_76" data-name="Path 76" d="M430.572 83.853l-.12-.03a1.932 1.932 0 0 0-.5-.064 2.868 2.868 0 0 0-2.52 1.619l-.059-1.406h-1.8l.011.168c.055.795.075 1.689.075 2.9l-.018 6.567h2.01v-5.129a5.2 5.2 0 0 1 .054-.779 2.22 2.22 0 0 1 2.114-2.025 5.076 5.076 0 0 1 .538.034l.216.023z" transform="translate(-330.831 -63.953)" fill="#fff"/><path id="Path_77" data-name="Path 77" d="M452.041 83.68c-2.675 0-4.541 2.139-4.541 5.2a4.492 4.492 0 0 0 4.737 4.852 7.719 7.719 0 0 0 3.179-.611l.12-.054-.386-1.5-.168.068a6.228 6.228 0 0 1-2.518.454 2.8 2.8 0 0 1-3.011-2.913l6.487.02.027-.129a4.48 4.48 0 0 0 .061-.838c.001-2.101-1.044-4.549-3.987-4.549zm-.134 1.528a1.981 1.981 0 0 1 1.476.563 2.769 2.769 0 0 1 .681 1.871h-4.573a2.564 2.564 0 0 1 2.416-2.434z" transform="translate(-347.782 -63.894)" fill="#fff"/><path id="Path_78" data-name="Path 78" d="M158.432 28.189a14.636 14.636 0 0 1 1.928-.129 4.3 4.3 0 0 1 2.829.774 2.815 2.815 0 0 1 .995 2.271 3.179 3.179 0 0 1-1.006 2.443 4.661 4.661 0 0 1-3.1.908 13.975 13.975 0 0 1-1.648-.075zm.908 5.57a6.525 6.525 0 0 0 .908.036c1.928 0 2.975-.97 2.975-2.668 0-1.5-.922-2.425-2.829-2.425a5.739 5.739 0 0 0-1.058.084z" transform="translate(-123.06 -20.612)" fill="#fff"/><path id="Path_79" data-name="Path 79" d="M189.815 40.331a2.265 2.265 0 0 1-2.4-2.323 2.331 2.331 0 0 1 2.5-2.4 2.249 2.249 0 0 1 2.416 2.314 2.342 2.342 0 0 1-2.5 2.407zm.032-.615a1.607 1.607 0 0 0 1.524-1.762 1.534 1.534 0 1 0-1.535 1.762z" transform="translate(-145.565 -26.472)" fill="#fff"/><path id="Path_80" data-name="Path 80" d="M212.193 36.016l.681 2.287c.134.5.27.979.363 1.446h.032c.114-.454.279-.942.454-1.437l.82-2.3h.745l.781 2.255c.186.531.332 1.017.454 1.474h.032a12.522 12.522 0 0 1 .375-1.474l.715-2.267h.908l-1.617 4.514h-.829l-.767-2.155a14.78 14.78 0 0 1-.454-1.492h-.02a12.439 12.439 0 0 1-.454 1.5l-.808 2.146h-.829L211.26 36z" transform="translate(-164.107 -26.774)" fill="#fff"/><path id="Path_81" data-name="Path 81" d="M247.231 36.938a11.2 11.2 0 0 0-.041-1.222h.81l.052.738h.02a1.9 1.9 0 0 1 1.658-.84 1.717 1.717 0 0 1 1.773 1.921v2.7h-.908v-2.6c0-.727-.3-1.342-1.16-1.342a1.3 1.3 0 0 0-1.224.84 1.108 1.108 0 0 0-.061.381v2.725h-.908z" transform="translate(-191.993 -26.473)" fill="#fff"/><path id="Path_82" data-name="Path 82" d="M272.7 26.78h.908v6.62h-.908z" transform="translate(-211.777 -19.618)" fill="#fff"/><path id="Path_83" data-name="Path 83" d="M284.195 40.331a2.266 2.266 0 0 1-2.4-2.323 2.331 2.331 0 0 1 2.5-2.4 2.248 2.248 0 0 1 2.414 2.314 2.342 2.342 0 0 1-2.5 2.407zm.03-.615a1.607 1.607 0 0 0 1.524-1.762 1.534 1.534 0 1 0-1.535 1.762z" transform="translate(-218.872 -26.472)" fill="#fff"/><path id="Path_84" data-name="Path 84" d="M310.62 39.183a6.8 6.8 0 0 0 .073 1.081h-.82l-.084-.568h-.03a1.928 1.928 0 0 1-1.535.681 1.368 1.368 0 0 1-1.535-1.3c0-1.092 1.079-1.689 3.015-1.678v-.089c0-.372-.114-1.054-1.135-1.044a2.616 2.616 0 0 0-1.317.336l-.207-.549a3.53 3.53 0 0 1 1.658-.393 1.678 1.678 0 0 1 1.916 1.846zm-.89-1.222c-.995-.018-2.125.141-2.125 1.017a.762.762 0 0 0 .849.783 1.264 1.264 0 0 0 1.233-.756.757.757 0 0 0 .041-.261z" transform="translate(-238.203 -26.51)" fill="#fff"/><path id="Path_85" data-name="Path 85" d="M333.538 26.78v5.45a10.267 10.267 0 0 0 .041 1.167h-.82l-.041-.783h-.02a1.876 1.876 0 0 1-1.7.886 2.154 2.154 0 0 1-2.157-2.3 2.257 2.257 0 0 1 2.25-2.425 1.726 1.726 0 0 1 1.514.681h.02V26.78zm-.908 3.946a1.361 1.361 0 0 0-.041-.354 1.319 1.319 0 0 0-1.317-.942 1.546 1.546 0 0 0-1.5 1.735 1.5 1.5 0 0 0 1.483 1.678 1.362 1.362 0 0 0 1.337-.979 1.278 1.278 0 0 0 .041-.354z" transform="translate(-255.415 -19.619)" fill="#fff"/><path id="Path_86" data-name="Path 86" d="M366.685 40.331a2.266 2.266 0 0 1-2.4-2.323 2.332 2.332 0 0 1 2.5-2.4 2.249 2.249 0 0 1 2.416 2.314 2.342 2.342 0 0 1-2.5 2.407zm.032-.615a1.607 1.607 0 0 0 1.524-1.762 1.534 1.534 0 1 0-1.535 1.762z" transform="translate(-282.944 -26.472)" fill="#fff"/><path id="Path_87" data-name="Path 87" d="M390.8 36.938a11.18 11.18 0 0 0-.041-1.222h.808l.052.738h.02a1.9 1.9 0 0 1 1.658-.84 1.717 1.717 0 0 1 1.773 1.921v2.7h-.908v-2.6c0-.727-.3-1.342-1.16-1.342a1.3 1.3 0 0 0-1.224.84 1.112 1.112 0 0 0-.057.391v2.725h-.908z" transform="translate(-303.504 -26.473)" fill="#fff"/><path id="Path_88" data-name="Path 88" d="M425.1 31.3v1.081h1.306v.624H425.1v2.436c0 .559.177.876.681.876a1.888 1.888 0 0 0 .529-.057l.041.624a2.743 2.743 0 0 1-.808.111 1.381 1.381 0 0 1-.985-.345 1.636 1.636 0 0 1-.352-1.185v-2.457h-.777v-.624h.777v-.831z" transform="translate(-329.177 -23.127)" fill="#fff"/><path id="Path_89" data-name="Path 89" d="M441.06 26.78h.908v2.82h.02a1.547 1.547 0 0 1 .654-.579 1.927 1.927 0 0 1 .933-.227 1.711 1.711 0 0 1 1.751 1.93V33.4h-.908v-2.59c0-.738-.3-1.344-1.16-1.344a1.31 1.31 0 0 0-1.224.822.908.908 0 0 0-.064.393v2.725h-.908z" transform="translate(-342.804 -19.618)" fill="#fff"/><path id="Path_90" data-name="Path 90" d="M465.673 38.087a1.528 1.528 0 0 0 1.71 1.567 3.808 3.808 0 0 0 1.39-.227l.166.579a4.482 4.482 0 0 1-1.68.288 2.225 2.225 0 0 1-2.468-2.271 2.315 2.315 0 0 1 2.364-2.443 1.976 1.976 0 0 1 2.062 2.128 1.906 1.906 0 0 1-.029.391zm2.666-.595a1.216 1.216 0 0 0-1.256-1.333 1.42 1.42 0 0 0-1.4 1.335z" transform="translate(-361.146 -26.449)" fill="#fff"/></svg>