<svg id="button-googleplay" xmlns="http://www.w3.org/2000/svg" width="116.432" height="38.086"><defs><clipPath id="clip-path"><path id="Path_43" data-name="Path 43" d="M55.245 43.207l-5.37-3.1-10.357-5.983c-.575-.333-1.148-.13-1.148.563v24.368c0 .519.41.745.908.466l10.6-6.119 5.37-3.1 5.16-2.99c.605-.349.547-.829.037-1.106s-5.2-2.999-5.2-2.999z" transform="translate(-38.37 -33.967)" fill="none"/></clipPath><linearGradient id="linear-gradient" x1=".5" y1=".914" x2=".5" y2="-.086" gradientUnits="objectBoundingBox"><stop offset="0" stop-color="#257cb0"/><stop offset=".21" stop-color="#3c8fb3"/><stop offset=".74" stop-color="#73bdba"/><stop offset="1" stop-color="#89cfbd"/></linearGradient><linearGradient id="linear-gradient-2" y1="1.33" x2="1" y2="1.33" gradientUnits="objectBoundingBox"><stop offset="0" stop-color="#52c1ad"/><stop offset="1" stop-color="#dee89a"/></linearGradient><linearGradient id="linear-gradient-3" x1=".5" y1="-.17" x2=".5" y2="-1.17" gradientUnits="objectBoundingBox"><stop offset="0" stop-color="#ec413d"/><stop offset=".19" stop-color="#d74352"/><stop offset=".74" stop-color="#a04888"/><stop offset="1" stop-color="#8a4a9d"/></linearGradient><linearGradient id="linear-gradient-4" x1=".5" y1=".68" x2=".5" y2="-.32" gradientUnits="objectBoundingBox"><stop offset="0" stop-color="#f58879"/><stop offset=".62" stop-color="#fbb276"/><stop offset="1" stop-color="#fec874"/></linearGradient></defs><path id="Path_38" data-name="Path 38" d="M116.432 32.939a5.147 5.147 0 0 1-5.147 5.147H5.147A5.147 5.147 0 0 1 0 32.939V5.147A5.147 5.147 0 0 1 5.147 0h106.138a5.147 5.147 0 0 1 5.147 5.147z" fill="#231f20"/><g id="PLAY" transform="translate(8.934 7.037)"><g id="Group_30" data-name="Group 30"><g id="Group_29" data-name="Group 29" clip-path="url(#clip-path)"><g id="Group_28" data-name="Group 28" transform="translate(0 -.505)"><path id="Path_39" data-name="Path 39" d="M38.37 32.21v26.382L51.673 45.4z" transform="translate(-38.37 -32.115)" fill="url(#linear-gradient)"/><path id="Path_40" data-name="Path 40" d="M55.245 41.545l-5.37-3.1L38.37 31.8v.1l13.3 13.191z" transform="translate(-38.37 -31.8)" fill="url(#linear-gradient-2)"/><path id="Path_41" data-name="Path 41" d="M38.37 102.051v.1L49.875 95.5l5.37-3.1-3.572-3.54z" transform="translate(-38.37 -75.574)" fill="url(#linear-gradient-3)"/><path id="Path_42" data-name="Path 42" d="M99.072 73.65L95.5 77.192l3.572 3.544 6.138-3.544z" transform="translate(-82.197 -63.905)" fill="url(#linear-gradient-4)"/></g></g></g></g><path id="Path_44" data-name="Path 44" d="M386.284 84.807a3.32 3.32 0 0 1-1.369-.277 2.578 2.578 0 0 1-1.041-.85h-.084a10.292 10.292 0 0 1 .084 1.274v3.16h-1.164V77h.945l.161 1.05h.056a2.7 2.7 0 0 1 1.043-.91 3.166 3.166 0 0 1 1.365-.279 2.835 2.835 0 0 1 2.356 1.043 5.558 5.558 0 0 1-.014 5.863 2.843 2.843 0 0 1-2.338 1.04zm-.168-6.965a2.054 2.054 0 0 0-1.7.652 3.368 3.368 0 0 0-.54 2.072v.258a3.833 3.833 0 0 0 .54 2.315 2.057 2.057 0 0 0 1.728.7 1.8 1.8 0 0 0 1.558-.806 3.82 3.82 0 0 0 .564-2.219 3.741 3.741 0 0 0-.564-2.2 1.863 1.863 0 0 0-1.586-.766z" transform="translate(-295.711 -59.525)" fill="#f9f9f9"/><path id="Path_45" data-name="Path 45" d="M419.454 74.523h-1.164V63.63h1.164z" transform="translate(-323.557 -49.274)" fill="#f9f9f9"/><path id="Path_46" data-name="Path 46" d="M434.541 84.718l-.233-1.092h-.056a3.218 3.218 0 0 1-1.146.976 3.493 3.493 0 0 1-1.425.256 2.558 2.558 0 0 1-1.788-.589 2.145 2.145 0 0 1-.647-1.672q0-2.329 3.726-2.436l1.3-.042v-.466a1.946 1.946 0 0 0-.389-1.334 1.66 1.66 0 0 0-1.25-.449 5.061 5.061 0 0 0-2.17.589l-.347-.882a5.465 5.465 0 0 1 1.243-.482 5.386 5.386 0 0 1 1.355-.175 2.917 2.917 0 0 1 2.033.61 2.546 2.546 0 0 1 .661 1.954v5.236zm-2.624-.82a2.361 2.361 0 0 0 1.7-.594 2.2 2.2 0 0 0 .619-1.667v-.7l-1.164.049a4.173 4.173 0 0 0-2 .431 1.3 1.3 0 0 0-.612 1.188 1.194 1.194 0 0 0 .382.959 1.581 1.581 0 0 0 1.064.333z" transform="translate(-331.959 -59.513)" fill="#f9f9f9"/><path id="Path_47" data-name="Path 47" d="M458.58 77.46h1.246l1.681 4.375a16.716 16.716 0 0 1 .687 2.165h.056q.091-.359.382-1.222t1.9-5.316h1.246l-3.3 8.741a4.338 4.338 0 0 1-1.146 1.837 2.436 2.436 0 0 1-1.607.543 4.7 4.7 0 0 1-1.05-.119v-.931a4.054 4.054 0 0 0 .862.084 1.777 1.777 0 0 0 1.709-1.344l.426-1.092z" transform="translate(-354.466 -59.989)" fill="#f9f9f9"/><path id="Path_48" data-name="Path 48" d="M285.887 78.633a2.616 2.616 0 0 1-.21 4.447 1.122 1.122 0 0 0-.449.787.88.88 0 0 0 .417.7l.577.449a2.814 2.814 0 0 1 1.348 2.247c0 1.509-1.46 3.027-4.219 3.027-2.328 0-3.451-1.106-3.451-2.3a2.31 2.31 0 0 1 1.236-1.958 6.78 6.78 0 0 1 3.064-.732 1.645 1.645 0 0 1-.482-1.09 1.447 1.447 0 0 1 .161-.626c-.177.016-.354.033-.515.033a2.539 2.539 0 0 1-2.664-2.519 2.887 2.887 0 0 1 1.027-2.152 4.375 4.375 0 0 1 2.873-.882h3.3l-1.027.577zm-1.139 7.125a2.488 2.488 0 0 0-.368-.016 6.41 6.41 0 0 0-1.686.258 1.8 1.8 0 0 0-1.381 1.653c0 1.141 1.108 1.958 2.824 1.958 1.539 0 2.359-.74 2.359-1.735 0-.82-.519-1.25-1.751-2.119zm.466-3.05a1.631 1.631 0 0 0 .4-1.164c0-1.164-.7-2.953-2.021-2.953a1.5 1.5 0 0 0-1.125.531 1.863 1.863 0 0 0-.354 1.188c0 1.076.626 2.857 2.007 2.857a1.644 1.644 0 0 0 1.09-.463z" transform="translate(-216.289 -60.477)" fill="#f9f9f9"/><path id="Path_49" data-name="Path 49" d="M249.34 84.712a3.782 3.782 0 0 1-3.907-3.651v-.13a3.972 3.972 0 0 1 4.149-3.893 3.747 3.747 0 0 1 3.83 3.662v.125a3.911 3.911 0 0 1-4.072 3.887zm2-1.3a2.9 2.9 0 0 0 .482-1.779c0-1.411-.673-4.1-2.659-4.1a2.23 2.23 0 0 0-1.441.545 2.428 2.428 0 0 0-.738 1.956c0 1.586.785 4.191 2.724 4.191a2.047 2.047 0 0 0 1.632-.806z" transform="translate(-189.653 -59.598)" fill="#f9f9f9"/><path id="Path_50" data-name="Path 50" d="M212.05 84.712a3.782 3.782 0 0 1-3.907-3.651v-.13a3.972 3.972 0 0 1 4.149-3.893 3.747 3.747 0 0 1 3.827 3.664v.122a3.91 3.91 0 0 1-4.069 3.888zm2-1.3a2.9 2.9 0 0 0 .482-1.779c0-1.411-.673-4.1-2.659-4.1a2.234 2.234 0 0 0-1.439.552 2.428 2.428 0 0 0-.738 1.956c0 1.586.785 4.191 2.724 4.191a2.049 2.049 0 0 0 1.63-.813z" transform="translate(-160.837 -59.598)" fill="#f9f9f9"/><path id="Path_51" data-name="Path 51" d="M166.325 72.562l-2.3.531a17.072 17.072 0 0 1-2.657.272 5.716 5.716 0 0 1-6.138-5.821c0-3.125 2.4-6.024 6.508-6.024a9.273 9.273 0 0 1 2.464.338 6.288 6.288 0 0 1 2.126 1l-1.337 1.271-.563.128.4-.645a4.6 4.6 0 0 0-3.446-1.514 4.448 4.448 0 0 0-4.461 4.752 5.7 5.7 0 0 0 5.7 5.879 4.8 4.8 0 0 0 2.047-.4v-2.6l-2.431.128 1.288-.7h3.416l-.419.4a.377.377 0 0 0-.161.258c-.016.144-.033.612-.033.773z" transform="translate(-119.982 -47.656)" fill="#f9f9f9"/><path id="Path_52" data-name="Path 52" d="M316.224 70.886c-.531-.049-.643-.144-.643-.773V60.89c.065-.563.233-.659.726-.95h-2.289l-1.208.58h1.232v9.945c0 .321-.063.37-.435.852h2.852l.587-.349c-.273-.035-.546-.049-.822-.082z" transform="translate(-241.663 -46.424)" fill="#f9f9f9"/><path id="Path_53" data-name="Path 53" d="M336.387 84.191c-.175.1-.352.21-.526.289a3.728 3.728 0 0 1-1.553.305 3.419 3.419 0 0 1-2.128-.624 4.144 4.144 0 0 1-1.63-3.376 3.626 3.626 0 0 1 3.663-3.7 3.107 3.107 0 0 1 1.649.445 2.647 2.647 0 0 1 1.118 1.583l-3.763 1.521-1.232.1c.4 2.03 1.774 3.213 3.295 3.213a4.134 4.134 0 0 0 1.951-.559zm-1.5-4.769c.3-.112.466-.207.466-.431a1.587 1.587 0 0 0-1.583-1.376 1.97 1.97 0 0 0-1.839 2.224c0 .272.033.559.049.848z" transform="translate(-255.407 -59.639)" fill="#f9f9f9"/><path id="Path_54" data-name="Path 54" d="M360.687 77.189v1.055h-.128v-1.055h-.349v-.109h.827v.109z" transform="translate(-278.226 -59.546)" fill="#f9f9f9"/><path id="Path_55" data-name="Path 55" d="M365.54 78.254v-1.066l-.335 1.066h-.1l-.328-1.066v1.066h-.116V77.09h.2l.3.931.291-.931h.2v1.164z" transform="translate(-281.666 -59.554)" fill="#f9f9f9"/><path id="Path_56" data-name="Path 56" d="M158.513 37.26h-.8a5.3 5.3 0 0 0-.233-.931h-1.164a4.843 4.843 0 0 0-.233.931h-.752q0-.1.584-1.6A12.579 12.579 0 0 0 156.5 34h.945a13.8 13.8 0 0 0 .529 1.63 14.316 14.316 0 0 1 .539 1.63zm-1.164-1.413a14.068 14.068 0 0 1-.428-1.4h-.037q0 .1-.442 1.4z" transform="translate(-119.993 -26.277)" fill="#f9f9fa"/><path id="Path_57" data-name="Path 57" d="M173.942 37.237h-.617a6.1 6.1 0 0 0-.7-1.083 6 6 0 0 1-.82-1.413h-.04a8.79 8.79 0 0 1 .063.99q0 .617.035 1.507h-.615q.037-.775.037-1.7t-.03-1.555H172a4.7 4.7 0 0 0 .617 1.057 6.225 6.225 0 0 1 .754 1.334h.037a9.408 9.408 0 0 1-.061-1q0-.678-.035-1.4h.626q-.035.619-.035 1.553t.039 1.71z" transform="translate(-132.288 -26.253)" fill="#f9f9fa"/><path id="Path_58" data-name="Path 58" d="M189.282 35.523a1.847 1.847 0 0 1-.466 1.241 1.591 1.591 0 0 1-1.276.531q-.37 0-1.02-.03.032-.754.033-1.7 0-.911-.033-1.553h.757l.286-.007a1.683 1.683 0 0 1 1.309.449 1.557 1.557 0 0 1 .41 1.069zm-.682.107a1.205 1.205 0 0 0-.279-.81 1.062 1.062 0 0 0-.855-.328 2.619 2.619 0 0 0-.3.023q.025.5.026 1.045 0 .6.026 1.185a1.649 1.649 0 0 0 .326.033.945.945 0 0 0 .8-.333 1.287 1.287 0 0 0 .254-.815z" transform="translate(-144.084 -26.277)" fill="#f9f9fa"/><path id="Path_59" data-name="Path 59" d="M204.038 37.268h-.74a4.92 4.92 0 0 0-.445-1.092.584.584 0 0 0-.5-.207h-.277q0 .643.023 1.3h-.7q.032-.754.033-1.7 0-.911-.033-1.553h1.19q1.148 0 1.148.785a.88.88 0 0 1-.654.869v.03a.78.78 0 0 1 .442.394 8.717 8.717 0 0 1 .513 1.174zm-.931-2.3q-.007-.494-.636-.494a2.188 2.188 0 0 0-.414.035q.028.389.028 1.011h.233q.782 0 .782-.55z" transform="translate(-155.578 -26.284)" fill="#f9f9fa"/><path id="Path_60" data-name="Path 60" d="M217.647 35.343a1.8 1.8 0 0 1-.466 1.274 1.526 1.526 0 0 1-1.164.505 1.469 1.469 0 0 1-1.106-.466 1.63 1.63 0 0 1-.445-1.178 1.8 1.8 0 0 1 .466-1.274 1.526 1.526 0 0 1 1.168-.504 1.471 1.471 0 0 1 1.106.466 1.63 1.63 0 0 1 .441 1.177zm-.7.072a1.29 1.29 0 0 0-.263-.848.824.824 0 0 0-.661-.326.764.764 0 0 0-.619.328 1.306 1.306 0 0 0-.256.829 1.288 1.288 0 0 0 .268.848.824.824 0 0 0 .659.326.762.762 0 0 0 .619-.328 1.309 1.309 0 0 0 .263-.827z" transform="translate(-165.675 -26.044)" fill="#f9f9fa"/><path id="Path_61" data-name="Path 61" d="M231.868 37.26h-.7q.032-.775.033-1.7T231.16 34h.7q-.032.631-.033 1.553t.041 1.707z" transform="translate(-178.547 -26.277)" fill="#f9f9fa"/><path id="Path_62" data-name="Path 62" d="M240.672 35.546a1.847 1.847 0 0 1-.466 1.241 1.591 1.591 0 0 1-1.276.531q-.37 0-1.02-.03.033-.754.033-1.7 0-.911-.033-1.553h1.036a1.683 1.683 0 0 1 1.309.449 1.559 1.559 0 0 1 .417 1.062zm-.682.107a1.2 1.2 0 0 0-.279-.81 1.062 1.062 0 0 0-.848-.328 2.618 2.618 0 0 0-.3.023q.025.5.026 1.045 0 .6.026 1.185a1.648 1.648 0 0 0 .326.033.945.945 0 0 0 .8-.333 1.287 1.287 0 0 0 .249-.815z" transform="translate(-183.782 -26.3)" fill="#f9f9fa"/><path id="Path_63" data-name="Path 63" d="M259.951 37.26h-.8a5.278 5.278 0 0 0-.233-.931h-1.164a4.843 4.843 0 0 0-.233.931h-.752q0-.1.584-1.6a12.558 12.558 0 0 0 .591-1.66h.945a13.793 13.793 0 0 0 .529 1.63 14.34 14.34 0 0 1 .533 1.63zm-1.164-1.413a14.2 14.2 0 0 1-.428-1.4h-.04q0 .1-.442 1.4z" transform="translate(-198.356 -26.277)" fill="#f9f9fa"/><path id="Path_64" data-name="Path 64" d="M275.183 34.887a.975.975 0 0 1-.445.882 1.976 1.976 0 0 1-1.09.284h-.168q0 .466.028 1.241h-.7q.033-.722.033-1.7 0-.9-.033-1.553h1.257a1.433 1.433 0 0 1 .8.214.729.729 0 0 1 .318.632zm-.645.137q0-.535-.71-.536a2.007 2.007 0 0 0-.375.037q.028.466.028 1.071h.144q.9 0 .9-.573z" transform="translate(-210.737 -26.305)" fill="#f9f9fa"/><path id="Path_65" data-name="Path 65" d="M288.023 34.857a.976.976 0 0 1-.445.883 1.976 1.976 0 0 1-1.09.284h-.168q0 .466.028 1.241h-.7q.033-.722.033-1.7 0-.9-.033-1.553h.435l.347-.012h.466a1.433 1.433 0 0 1 .8.214.729.729 0 0 1 .327.643zm-.645.137q0-.535-.71-.536a2.009 2.009 0 0 0-.375.037q.028.466.028 1.071h.144q.913.005.913-.572z" transform="translate(-220.656 -26.274)" fill="#f9f9fa"/><path id="Path_66" data-name="Path 66" d="M306.427 35.343a1.8 1.8 0 0 1-.466 1.274 1.526 1.526 0 0 1-1.164.505 1.47 1.47 0 0 1-1.106-.466 1.631 1.631 0 0 1-.445-1.178 1.8 1.8 0 0 1 .466-1.274 1.526 1.526 0 0 1 1.164-.505 1.471 1.471 0 0 1 1.106.466 1.63 1.63 0 0 1 .445 1.178zm-.7.072a1.291 1.291 0 0 0-.268-.848.824.824 0 0 0-.643-.333.764.764 0 0 0-.619.328 1.307 1.307 0 0 0-.265.836 1.287 1.287 0 0 0 .27.848.824.824 0 0 0 .659.326.762.762 0 0 0 .619-.328 1.309 1.309 0 0 0 .254-.827z" transform="translate(-234.258 -26.044)" fill="#f9f9fa"/><path id="Path_67" data-name="Path 67" d="M322.6 37.26h-.617a6.094 6.094 0 0 0-.7-1.083 6 6 0 0 1-.82-1.413h-.04a8.783 8.783 0 0 1 .063.99q0 .617.035 1.507h-.615q.037-.775.037-1.7T319.917 34h.743a4.7 4.7 0 0 0 .617 1.057 6.221 6.221 0 0 1 .75 1.341h.037a9.4 9.4 0 0 1-.061-1q0-.678-.035-1.4h.626q-.035.619-.035 1.553t.041 1.709z" transform="translate(-247.125 -26.277)" fill="#f9f9fa"/></svg>