<svg xmlns="http://www.w3.org/2000/svg" viewBox="0 0 161.16 78.06"><defs><style>.cls-1{fill:#ffa840;}.cls-2{fill:#6f6f6f;}</style></defs><title>car-insurance</title><g id="Layer_2" data-name="Layer 2"><g id="Layer_1-2" data-name="Layer 1"><circle class="cls-1" cx="127.69" cy="61.06" r="11.96"/><circle class="cls-1" cx="38.3" cy="61.06" r="11.96"/><path class="cls-2" d="M76.8,63H57.92a2.52,2.52,0,1,1,0-5H76.8a2.52,2.52,0,1,1,0,5Z"/><path class="cls-2" d="M57.92,63a2.52,2.52,0,0,1-2.52-2.52,21.41,21.41,0,0,0-42.81,0,2.52,2.52,0,0,1-5,0,26.44,26.44,0,0,1,52.88,0A2.51,2.51,0,0,1,57.92,63Z"/><path class="cls-2" d="M158.64,63H147.31a2.52,2.52,0,1,1,0-5h8.81v-4l-3-3a2.52,2.52,0,0,1-.74-1.78V38.43l-34.66-9.56a2.54,2.54,0,0,1-1.77-1.79c-.24-.88-6.62-22-49.18-22S22.67,26.36,22.66,26.57a2.5,2.5,0,0,1-1.55,2.19L7.55,34.41V49.1a2.49,2.49,0,0,1-1.39,2.25L5,51.92v6h5a2.52,2.52,0,1,1,0,5H2.52A2.52,2.52,0,0,1,0,60.43V50.36a2.53,2.53,0,0,1,1.39-2.25l1.13-.56V32.73a2.52,2.52,0,0,1,1.55-2.32l13.79-5.75C19,18.86,26,0,66.73,0s51.36,18.89,53.56,24.36l35.24,9.72a2.54,2.54,0,0,1,1.85,2.43V48.06l3,3a2.52,2.52,0,0,1,.74,1.78v7.55A2.52,2.52,0,0,1,158.64,63Z"/><path class="cls-2" d="M147.31,63a2.52,2.52,0,0,1-2.52-2.52,21.41,21.41,0,0,0-42.81,0,2.52,2.52,0,1,1-5,0,26.44,26.44,0,0,1,52.88,0A2.52,2.52,0,0,1,147.31,63Z"/><path class="cls-2" d="M99.46,63H91.91a2.52,2.52,0,1,1,0-5h7.55a2.52,2.52,0,1,1,0,5Z"/><path class="cls-2" d="M33.89,47.84A12.59,12.59,0,1,1,21.3,60.43,12.6,12.6,0,0,1,33.89,47.84m0-5A17.63,17.63,0,1,0,51.52,60.43,17.62,17.62,0,0,0,33.89,42.81Z"/><path class="cls-2" d="M123.29,47.84A12.59,12.59,0,1,1,110.7,60.43a12.61,12.61,0,0,1,12.59-12.59m0-5a17.63,17.63,0,1,0,17.62,17.62A17.62,17.62,0,0,0,123.29,42.81Z"/><path class="cls-2" d="M118.25,29H91.81a2.52,2.52,0,1,1,0-5h26.44a2.52,2.52,0,0,1,0,5Z"/></g></g></svg>