<svg xmlns="http://www.w3.org/2000/svg" viewBox="0 0 72.33 111.75"><defs><style>.cls-1{fill:#ffa840;}.cls-2,.cls-3{fill:#6f6f6f;}.cls-3{stroke:#6f6f6f;stroke-miterlimit:10;}</style></defs><title>employees_1</title><g id="Layer_2" data-name="Layer 2"><g id="Layer_1-2" data-name="Layer 1"><g id="Employee"><rect class="cls-1" x="34.63" y="23.75" width="7" height="21"/><path class="cls-2" d="M28.87,36.68a2,2,0,0,1-1.41-.59L.59,9.39a2,2,0,0,1,0-2.83l6-6a2,2,0,0,1,2.83,0l21.9,21.9a2,2,0,1,1-2.83,2.82L8,4.83,4.83,8,30.28,33.26a2,2,0,0,1-1.41,3.42Z"/><path class="cls-2" d="M43.46,36.68a2,2,0,0,1-1.41-3.42L67.5,8,64.36,4.83,43.87,25.31A2,2,0,0,1,41,22.49L62.94.59a2,2,0,0,1,2.83,0l6,6A2,2,0,0,1,72.33,8a2,2,0,0,1-.59,1.41L44.87,36.09A2,2,0,0,1,43.46,36.68Z"/><path class="cls-2" d="M57.14,111.75H14.3C8,111.75,2.82,107,2.82,101.11V49.4C2.82,43.53,8,38.75,14.3,38.75h4.79a1.86,1.86,0,1,1,0,3.71H14.3A7.23,7.23,0,0,0,6.82,49.4v51.71a7.23,7.23,0,0,0,7.48,6.94H57.14a7.24,7.24,0,0,0,7.49-6.94V49.4a7.24,7.24,0,0,0-7.49-6.94H43.66a1.86,1.86,0,1,1,0-3.71H57.14c6.33,0,11.49,4.78,11.49,10.65v51.71C68.63,107,63.47,111.75,57.14,111.75Z"/><path class="cls-2" d="M42.64,45.79H29.7a1.87,1.87,0,0,1-2-1.71V23.61a1.87,1.87,0,0,1,2-1.71H42.64a1.88,1.88,0,0,1,2,1.71V44.08A1.88,1.88,0,0,1,42.64,45.79ZM31.7,42.36h8.94v-17H31.7Z"/><path class="cls-3" d="M11.86,110.75a1.23,1.23,0,0,1-1.23-1.23v-3.39c0-4.11,1.34-6.46,4-8s6.57-2.24,11.73-3L27,95l.63-.1V90l-.34-.17-.35-.16a10.23,10.23,0,0,1-4.74-4A13.17,13.17,0,0,1,20.81,79V72.17A14.33,14.33,0,0,1,35.62,57.36a1.23,1.23,0,0,1,.87.36,1.23,1.23,0,0,1,0,1.74,1.23,1.23,0,0,1-.87.36A11.82,11.82,0,0,0,23.27,72.17V79c0,2.85.45,4.68,1.42,6s2.48,2.18,4.61,3a1.24,1.24,0,0,1,.56.45,1.27,1.27,0,0,1,.2.69v6.79a1.17,1.17,0,0,1-.29.8,1.2,1.2,0,0,1-.74.42l-1.16.18-1.15.18c-5.07.79-8.47,1.4-10.62,2.58s-3,2.94-3,6v3.39a1.23,1.23,0,0,1-1.23,1.23Z"/><path class="cls-3" d="M59.39,110.75a1.23,1.23,0,0,1-1.23-1.23v-3.39c0-3.07-1-4.83-3.21-6s-5.53-1.79-10.17-2.54l-1.26-.21-1.31-.22a1.21,1.21,0,0,1-1-1.21V89.15a1.18,1.18,0,0,1,.16-.61,1.21,1.21,0,0,1,.43-.44,15.84,15.84,0,0,0,4.42-3.47A8.62,8.62,0,0,0,48,79V72.17A11.82,11.82,0,0,0,35.62,59.82a1.25,1.25,0,0,1-.87-.36,1.23,1.23,0,0,1,0-1.74,1.25,1.25,0,0,1,.87-.36A14.33,14.33,0,0,1,50.44,72.17V79a11.28,11.28,0,0,1-2,6.73,14.27,14.27,0,0,1-4.26,3.8l-.29.18-.28.18V94.9l.76.13.77.12c4.93.79,8.79,1.52,11.42,3s4,3.88,4,7.93v3.39a1.25,1.25,0,0,1-1.24,1.23Z"/></g></g></g></svg>