<svg xmlns="http://www.w3.org/2000/svg" viewBox="0 0 99 108.17"><defs><style>.cls-1{fill:#ffa840;}.cls-2{fill:#6f6f6f;}</style></defs><title>maid-insurance</title><g id="Layer_2" data-name="Layer 2"><g id="Layer_1-2" data-name="Layer 1"><g id="Maid"><polygon class="cls-1" points="25 108 78 108 78 76 68 71 68 101 31 101 31 73 25 75 25 108"/><path class="cls-2" d="M49.25,64c-17.65,0-19.91-27.67-20-28.85a2,2,0,0,1,2-2.15c11.38,0,21-5.5,21-12a2,2,0,0,1,4,0,12,12,0,0,0,12,12,2,2,0,0,1,1.49.67,2,2,0,0,1,.5,1.55C70.11,36.4,66.84,64,49.25,64ZM33.49,36.94C34.32,43,37.71,60,49.25,60S64.89,42.85,66,36.83A16,16,0,0,1,53.85,28C50.17,33,42.6,36.45,33.49,36.94Z"/><path class="cls-2" d="M97,108a2,2,0,0,1-2-2V97c0-11.38-11.26-21.07-25-21.94V100a2,2,0,0,1-2,2H31a2,2,0,0,1-2-2V75.06C15.26,75.93,4,85.62,4,97v9a2,2,0,0,1-4,0V97C0,82.91,14.2,71,31,71a2,2,0,0,1,2,2V98H66V73a2,2,0,0,1,2-2c16.8,0,31,11.91,31,26v9A2,2,0,0,1,97,108Z"/><path class="cls-2" d="M19,108.17a1.87,1.87,0,0,1-2-1.69V75a1.87,1.87,0,0,1,2-1.69A1.87,1.87,0,0,1,21,75v31.46A1.87,1.87,0,0,1,19,108.17Z"/><path class="cls-2" d="M79,108.17a1.87,1.87,0,0,1-2-1.69V75a2,2,0,0,1,4,0v31.46A1.87,1.87,0,0,1,79,108.17Z"/><path class="cls-2" d="M78.75,68a2,2,0,0,1-2-2V31a27,27,0,0,0-54,0V66a2,2,0,0,1-4,0V31a31,31,0,0,1,62,0V66A2,2,0,0,1,78.75,68Z"/></g></g></g></svg>