<svg xmlns="http://www.w3.org/2000/svg" viewBox="0 0 87 117"><defs><style>.cls-1{fill:#ffa840;}.cls-2{fill:#6f6f6f;}</style></defs><title>golf-insurance_3</title><g id="Layer_2" data-name="Layer 2"><g id="Layer_1-2" data-name="Layer 1"><g id="Golf_Insurance" data-name="Golf Insurance"><path class="cls-1" d="M40,117H52l2.1-13.58,7.11-13.26L49,93.26l-14-.71S43,104,40,117Z"/><path class="cls-2" d="M37.13,57.42c-2.86,0-5-.84-6.25-2.49a6.61,6.61,0,0,1-1.07-5.38,2,2,0,0,1,3.88,1,2.72,2.72,0,0,0,.35,2c.62.77,2,.94,3.09.94a2,2,0,1,1,0,4Z"/><path class="cls-2" d="M44.91,74.28c-.23,0-.46,0-.69,0a6.61,6.61,0,0,1-4.56-3,2,2,0,0,1,3.42-2.07,2.68,2.68,0,0,0,1.64,1.15c1,.11,2.09-.77,2.85-1.52a2,2,0,1,1,2.82,2.83A7.87,7.87,0,0,1,44.91,74.28Z"/><path class="cls-2" d="M29.06,68.17c-2.86,0-5-.84-6.25-2.49a6.63,6.63,0,0,1-1.07-5.37,2,2,0,0,1,3.89.95,2.72,2.72,0,0,0,.35,2c.62.77,2,.93,3.08.93a2,2,0,1,1,0,4Z"/><path class="cls-2" d="M52,117H35.56a2,2,0,0,1-2-2.22c0-.12,1.15-12.33-9.49-24.3a2,2,0,0,1,2.43-3.09,40.87,40.87,0,0,0,5.87,2.37A36,36,0,0,0,61,87.24a2,2,0,0,1,1.73-.08,2,2,0,0,1,1.14,1.32l0,.15a2,2,0,0,1-.4,1.81C63.43,90.55,54,101.92,54,115A2,2,0,0,1,52,117Zm-14.39-4H50.07c.49-7.87,3.74-14.86,6.48-19.47a39.82,39.82,0,0,1-25.06.14A37.85,37.85,0,0,1,37.62,113Z"/><path class="cls-2" d="M58.55,50c0,2.85-.83,5-2.49,6.24a6.64,6.64,0,0,1-5.37,1.08,2,2,0,0,1,1-3.89,2.72,2.72,0,0,0,2-.35c.77-.62.93-2,.93-3.08a2,2,0,0,1,4,0Z"/><path class="cls-2" d="M58.61,34.2a7,7,0,0,1-.17,1.56,2,2,0,0,1-3.89-.95,2.72,2.72,0,0,0-.35-2c-.62-.77-2-.93-3.08-.93a2,2,0,0,1,0-4c2.86,0,5,.83,6.25,2.48A6.22,6.22,0,0,1,58.61,34.2Z"/><path class="cls-2" d="M75.42,42.22a5.49,5.49,0,0,1,0,.7,6.57,6.57,0,0,1-3,4.55,2,2,0,0,1-2.07-3.41,2.76,2.76,0,0,0,1.15-1.65c.1-1-.77-2.09-1.52-2.84a2,2,0,0,1,2.83-2.83A7.87,7.87,0,0,1,75.42,42.22Z"/><path class="cls-2" d="M69.36,26.14a6.32,6.32,0,0,1-.17,1.55,2,2,0,0,1-3.88-1,2.72,2.72,0,0,0-.35-2c-.62-.77-2-.93-3.08-.93a2,2,0,0,1,0-4c2.85,0,4.95.84,6.24,2.49A6.12,6.12,0,0,1,69.36,26.14Z"/><path class="cls-2" d="M69.31,58.07c0,2.86-.84,5-2.49,6.25a6.58,6.58,0,0,1-5.37,1.07,2,2,0,0,1,.94-3.88,2.71,2.71,0,0,0,2-.35c.78-.62.94-2,.94-3.09a2,2,0,1,1,4,0Z"/><path class="cls-2" d="M43.5,87A43.5,43.5,0,1,1,87,43.5,43.54,43.54,0,0,1,43.5,87Zm0-83A39.5,39.5,0,1,0,83,43.5,39.55,39.55,0,0,0,43.5,4Z"/></g></g></g></svg>