<svg xmlns="http://www.w3.org/2000/svg" viewBox="0 0 138.23 94.33"><defs><style>.cls-1{fill:#ffa840;}.cls-2{fill:#6f6f6f;}</style></defs><title>life-insurance</title><g id="Layer_2" data-name="Layer 2"><g id="Layer_1-2" data-name="Layer 1"><path class="cls-1" d="M79.93,25.37a43.43,43.43,0,0,1-8.23,4.82,42.81,42.81,0,0,1-8.9-4.82c-5.56-4.21-8.38-8.81-8.38-13.67a8.83,8.83,0,0,1,8.75-8.89c2.71,0,3.89,1.25,5.57,3.42C69,6.53,68,6,68.36,6a1.24,1.24,0,0,0,1-.48,12.14,12.14,0,0,1,8.23-4.08c4.82,0,10.08,5.32,10.08,10.22S85.49,21.16,79.93,25.37Z"/><path class="cls-2" d="M136,94.33a2.21,2.21,0,0,1-2.2-2.2V73.88c0-6.72-6.36-11-19.43-13a2.2,2.2,0,0,1-1.86-2.18V54.48A2.19,2.19,0,0,1,114,52.41c5-1.83,7.68-6.09,7.68-12V34.34a13,13,0,0,0-26,0v6.08c0,5.9,2.73,10.16,7.68,12a2.19,2.19,0,0,1,1.44,2.07v4.19A2.2,2.2,0,0,1,103,60.84c-7.31,1.31-12.74,3.26-15.71,5.64A2.21,2.21,0,1,1,84.5,63c3.31-2.65,8.65-4.73,15.86-6.18v-.91c-5.82-2.75-9.12-8.32-9.12-15.52V34.34a17.41,17.41,0,1,1,34.82,0v6.08c0,7.2-3.3,12.77-9.12,15.52v.87c14.13,2.58,21.29,8.31,21.29,17.07V92.13A2.21,2.21,0,0,1,136,94.33Z"/><path class="cls-2" d="M2.2,94.33A2.21,2.21,0,0,1,0,92.13V80C0,71.27,7.16,65.53,21.29,62.9V62a17,17,0,0,1-9.12-15.46V40.42A17,17,0,0,1,29.58,23,17,17,0,0,1,47,40.42v6.09A17,17,0,0,1,37.86,62v.93c1.58.29,3.08.63,4.46,1a2.2,2.2,0,1,1-1.12,4.26c-1.78-.47-3.76-.88-5.89-1.22a2.2,2.2,0,0,1-1.85-2.18V60.56a2.19,2.19,0,0,1,1.37-2,12.59,12.59,0,0,0,7.75-12V40.42a12.58,12.58,0,0,0-13-13,12.58,12.58,0,0,0-13,13v6.09a12.59,12.59,0,0,0,7.75,12,2.2,2.2,0,0,1,1.38,2v4.19a2.2,2.2,0,0,1-1.86,2.18C11,69,4.41,73.39,4.41,80V92.13A2.21,2.21,0,0,1,2.2,94.33Z"/><path class="cls-2" d="M44.78,94.33a2.21,2.21,0,0,1-2.2-2.2v-3c0-8.63,6.62-9.67,15-11l.2,0V75.31c-4.47-2.16-6.09-5.07-6.09-10.56V58.67A13.91,13.91,0,0,1,66.07,44.3a2.21,2.21,0,1,1,0,4.41,9.53,9.53,0,0,0-10,10v6.08c0,4.46,1.12,5.63,4.71,7.08a2.21,2.21,0,0,1,1.37,2V80a2.21,2.21,0,0,1-1.85,2.18l-2.07.32C49,83.91,47,84.64,47,89.08v3A2.21,2.21,0,0,1,44.78,94.33Z"/><path class="cls-2" d="M87.36,94.33a2.2,2.2,0,0,1-2.2-2.2v-3c0-4.31-2.24-5.14-11.06-6.57-.75-.12-1.52-.24-2.31-.38A2.2,2.2,0,0,1,70,80V73.88A2.18,2.18,0,0,1,71,72c3-1.81,5-3.29,5-7.24V58.67a9.53,9.53,0,0,0-10-10,2.21,2.21,0,0,1,0-4.41A13.9,13.9,0,0,1,80.44,58.67v6.08c0,5.94-3.34,8.64-6.08,10.37v3l.44.07c7.92,1.28,14.77,2.39,14.77,10.92v3A2.21,2.21,0,0,1,87.36,94.33Z"/><path class="cls-2" d="M67.45,36.47l-.87-.37A53.35,53.35,0,0,1,56.4,30.23c-7.17-5.34-10.8-11.29-10.8-17.67A12.56,12.56,0,0,1,67.45,4.11a12.57,12.57,0,0,1,21.86,8.45c0,6.38-3.63,12.33-10.8,17.67A53.35,53.35,0,0,1,68.33,36.1ZM58.16,4.41A8.15,8.15,0,0,0,50,12.56c0,4.91,3,9.67,9,14.13a49.06,49.06,0,0,0,8.41,5,48.69,48.69,0,0,0,8.42-5c6-4.46,9-9.22,9-14.13a8.15,8.15,0,0,0-14.57-5,3.65,3.65,0,0,1-5.75,0A8.11,8.11,0,0,0,58.16,4.41Z"/></g></g></svg>