<svg xmlns="http://www.w3.org/2000/svg" viewBox="0 0 113.52 121.23"><defs><style>.cls-1{fill:#ffa840;}.cls-2{fill:#6f6f6f;}</style></defs><title>health-insurance</title><g id="Layer_2" data-name="Layer 2"><g id="Layer_1-2" data-name="Layer 1"><path class="cls-1" d="M100.84,91.48a12.67,12.67,0,1,1-12.67,12.67,12.69,12.69,0,0,1,12.67-12.67"/><path class="cls-2" d="M96.44,91.48a12.67,12.67,0,1,1-12.68,12.67A12.69,12.69,0,0,1,96.44,91.48m0-4.41a17.08,17.08,0,1,0,17.08,17.08A17.09,17.09,0,0,0,96.44,87.07Z"/><path class="cls-2" d="M33.06,63.92A33.1,33.1,0,0,1,0,30.86a4.41,4.41,0,0,1,8.82,0,24.25,24.25,0,1,0,48.49,0,4.41,4.41,0,0,1,8.82,0A33.11,33.11,0,0,1,33.06,63.92Z"/><path class="cls-2" d="M4.41,29.76A2.21,2.21,0,0,1,2.2,27.55V6.61a2.21,2.21,0,0,1,2.21-2.2H9.92a2.21,2.21,0,0,1,0,4.41H6.61V27.55A2.2,2.2,0,0,1,4.41,29.76Z"/><path class="cls-2" d="M61.72,29.76a2.21,2.21,0,0,1-2.21-2.21V8.82h-3.3a2.21,2.21,0,1,1,0-4.41h5.51a2.2,2.2,0,0,1,2.2,2.2V27.55A2.2,2.2,0,0,1,61.72,29.76Z"/><path class="cls-2" d="M48.49,113.52A17.65,17.65,0,0,1,30.86,95.88V61.72a2.21,2.21,0,1,1,4.41,0V95.88a13.23,13.23,0,1,0,26.45,0V70.54a2.21,2.21,0,1,1,4.41,0V95.88A17.66,17.66,0,0,1,48.49,113.52Z"/><path class="cls-2" d="M97,91.48a2.21,2.21,0,0,1-2.21-2.21V70.54a14.33,14.33,0,1,0-28.65,0,2.21,2.21,0,0,1-4.41,0,18.74,18.74,0,1,1,37.47,0V89.27A2.21,2.21,0,0,1,97,91.48Z"/><path class="cls-2" d="M14.88,12.12a6.06,6.06,0,1,1,6.06-6.06A6.07,6.07,0,0,1,14.88,12.12Zm0-7.71a1.65,1.65,0,1,0,1.65,1.65A1.65,1.65,0,0,0,14.88,4.41Z"/><path class="cls-2" d="M51.25,12.12a6.06,6.06,0,1,1,6.06-6.06A6.07,6.07,0,0,1,51.25,12.12Zm0-7.71A1.65,1.65,0,1,0,52.9,6.06,1.65,1.65,0,0,0,51.25,4.41Z"/></g></g></svg>