<svg xmlns="http://www.w3.org/2000/svg" viewBox="0 0 138.87 122.33"><defs><style>.cls-1{fill:#6f6f6f;}.cls-2{fill:#ffa840;}</style></defs><title>home-insurance</title><g id="Layer_2" data-name="Layer 2"><g id="Layer_1-2" data-name="Layer 1"><path class="cls-1" d="M18.75,90.37V58.81A1,1,0,0,1,19.1,58h0L68.78,16.65a1,1,0,0,1,1.33,0L119.76,58a1,1,0,0,1,.36.77v0h0l-1,58.06h0a1.09,1.09,0,0,1-1.08,1.07H19.84a1.1,1.1,0,0,1-1.08-1.08H17.08l1.68,0v0H17.08l1.68,0v0l.06-13.23a2.21,2.21,0,1,0-4.41,0l-.06,13.23h2.21l-2.21,0v0a5.48,5.48,0,0,0,5.49,5.48H118a5.49,5.49,0,0,0,5.49-5.4h0l1-58.06v-.09a5.36,5.36,0,0,0-2-4.15L72.93,13.26a5.45,5.45,0,0,0-7,0L16.28,54.66h0a5.38,5.38,0,0,0-1.94,4.15V90.37a2.21,2.21,0,1,0,4.41,0Z"/><path class="cls-1" d="M138.08,56.72,70.85.51A2.22,2.22,0,0,0,68,.51L.79,56.72A2.2,2.2,0,1,0,3.62,60.1l65.81-55,65.82,55a2.2,2.2,0,0,0,2.83-3.38Z"/><path class="cls-2" d="M89,93.24a70.79,70.79,0,0,1-13.61,8c-2-.88-9-3.62-14.72-8-9.19-7-13.86-14.57-13.86-22.6A14.62,14.62,0,0,1,61.29,55.93c4.48,0,6.44,2.06,9.2,5.66.39.49-1.23-.32-.61-.32a2,2,0,0,0,1.59-.79c2.77-3.59,9.13-6.75,13.61-6.75,8,0,16.69,8.8,16.69,16.91S98.2,86.27,89,93.24Z"/><path class="cls-1" d="M83,52.13a19.21,19.21,0,0,0-13.57,5.56A19.33,19.33,0,0,0,36.54,71.46c0,9.54,5.62,18.75,16.24,26.64a76.17,76.17,0,0,0,15.89,9,2,2,0,0,0,.76.14,2.06,2.06,0,0,0,.77-.14,76,76,0,0,0,15.88-9c10.63-7.89,16.25-17.1,16.25-26.64A19.35,19.35,0,0,0,83,52.13Zm.64,42.53a73.59,73.59,0,0,1-14.21,8.19,73.89,73.89,0,0,1-14.21-8.19c-9.6-7.15-14.47-15-14.47-23.2a15.12,15.12,0,0,1,27-9.31,2.11,2.11,0,0,0,3.32,0,15.12,15.12,0,0,1,27,9.31C98.11,79.7,93.24,87.51,83.64,94.66Z"/></g></g></svg>