<svg xmlns="http://www.w3.org/2000/svg" width="18" height="19"><g stroke="#fff" stroke-linecap="round" stroke-linejoin="round" stroke-width="1.5" fill="none"><path d="M6 10h6a6 6 0 0 1 6 6v3H0v-3a6 6 0 0 1 6-6z" stroke="none"/><path d="M6 10.75h6A5.25 5.25 0 0 1 17.25 16v1.5a.75.75 0 0 1-.75.75h-15a.75.75 0 0 1-.75-.75V16A5.25 5.25 0 0 1 6 10.75z"/></g><path d="M8.937 8.954a4.477 4.477 0 1 0 0-8.954 4.477 4.477 0 0 0 .01 8.954zM5.891 4.481a3.043 3.043 0 0 1 3.036-3.043 3.04 3.04 0 1 1-3.036 3.044z" fill="#fff"/></svg>