<svg xmlns="http://www.w3.org/2000/svg" viewBox="0 0 425.18 289.45"><defs><style>.cls-1{fill:#60608b;}.cls-1,.cls-8{opacity:0.1;isolation:isolate;}.cls-2{fill:#ffbe4d;}.cls-3{fill:#9670a2;}.cls-4{fill:#202834;}.cls-5{fill:none;}.cls-6,.cls-8{fill:#2ec8c6;}.cls-7{fill:#3ba5af;}</style></defs><title>img-subscribe</title><g id="Layer_2" data-name="Layer 2"><g id="Layer_1-2" data-name="Layer 1"><g id="Group_203" data-name="Group 203"><path id="Path_514" data-name="Path 514" class="cls-1" d="M219.78,48.07l-28.85,107.6a6.4,6.4,0,0,0,1.36,5.86l24.51,28.12a6.39,6.39,0,0,0,6.39,2l13.68-3.44a6.38,6.38,0,0,1,6.65,2.32l7.89,10.31a6.4,6.4,0,0,0,6.82,2.27L305,190a6.41,6.41,0,0,0,4.45-4.5L337.76,79.71a6.4,6.4,0,0,0-4.53-7.84h0L227.62,43.55A6.4,6.4,0,0,0,219.78,48.07Z"/><g id="Group_188" data-name="Group 188"><path class="cls-2" d="M397.59,115.3a2,2,0,0,1-2-2V99.55a2,2,0,0,1,4,0V113.3A2,2,0,0,1,397.59,115.3Z"/><path class="cls-2" d="M397.59,152.73a2,2,0,0,1-2-2V137a2,2,0,1,1,4,0v13.75A2,2,0,0,1,397.59,152.73Z"/><path class="cls-2" d="M423.18,127.14H409.43a2,2,0,0,1,0-4h13.75a2,2,0,1,1,0,4Z"/><path class="cls-2" d="M385.75,127.14H372a2,2,0,0,1,0-4h13.75a2,2,0,0,1,0,4Z"/></g><g id="Group_189" data-name="Group 189"><path class="cls-2" d="M362.37,16.61a2,2,0,0,1-2-2V5.67a2,2,0,0,1,4,0v8.94A2,2,0,0,1,362.37,16.61Z"/><path class="cls-2" d="M362.37,40.94a2,2,0,0,1-2-2V30a2,2,0,0,1,4,0v8.94A2,2,0,0,1,362.37,40.94Z"/><path class="cls-2" d="M379,24.31h-8.94a2,2,0,0,1,0-4H379a2,2,0,0,1,0,4Z"/><path class="cls-2" d="M354.67,24.31h-8.94a2,2,0,0,1,0-4h8.94a2,2,0,0,1,0,4Z"/></g><g id="Group_190" data-name="Group 190"><path id="Path_500" data-name="Path 500" class="cls-3" d="M42.53,31.05,97.36,51.12,126.41,3.88Z"/><path id="Path_501" data-name="Path 501" class="cls-4" d="M29.87,38.33,91.23,61a2.72,2.72,0,0,0,3.19-1L130.73,5.56a2.7,2.7,0,0,0-4.5-3L91.11,55.21l-59.36-22a2.7,2.7,0,0,0-1.88,5.07Z"/><path id="Path_502" data-name="Path 502" class="cls-4" d="M41.26,85.45l1.46,4.49a10.59,10.59,0,0,0,13.34,6.8l87.81-28.53a10.6,10.6,0,0,0,6.8-13.34L135.22,7.32A10.59,10.59,0,0,0,121.88.52L34.07,29.05a10.59,10.59,0,0,0-6.8,13.34l9.26,28.49a2.7,2.7,0,0,0,5.14-1.67h0L32.41,40.73a5.19,5.19,0,0,1,3.33-6.53h0L123.55,5.67A5.18,5.18,0,0,1,130.08,9h0l15.45,47.55a5.18,5.18,0,0,1-3.33,6.53L54.39,91.6a5.18,5.18,0,0,1-6.53-3.32h0l-1.46-4.5a2.7,2.7,0,0,0-5.14,1.67Z"/></g><g id="Group_191" data-name="Group 191"><path id="Path_503" data-name="Path 503" class="cls-3" d="M245.83,191.17l68.35,94.25L134.25,238.6Z"/><g id="Group_191-2" data-name="Group 191-2"><path id="Path_504" data-name="Path 504" class="cls-4" d="M304.48,288.91,133.56,243.15a15.73,15.73,0,0,1-11.14-19l24.84-97.67a15.64,15.64,0,0,1,8.07-10.1l.43-.19,19.82-6.75a3.28,3.28,0,1,1,2.12,6.2l-19.58,6.67a9.11,9.11,0,0,0-4.51,5.78l-24.84,97.67a9.14,9.14,0,0,0,6.48,11.06l170.92,45.76a9.14,9.14,0,0,0,11.18-6.45l26-97.32a9.16,9.16,0,0,0-1-7l-13.73-14a3.27,3.27,0,1,1,4.53-4.73l.15.15,14.21,14.52.18.28a15.72,15.72,0,0,1,2,12.53l-26.06,97.32A15.68,15.68,0,0,1,304.48,288.91Z"/><g id="Group_191-3" data-name="Group 191-3"><line id="Line_32" data-name="Line 32" class="cls-5" x1="217.74" y1="190.77" x2="169.47" y2="139.33"/><path id="Path_505" data-name="Path 505" class="cls-4" d="M216.89,193.93a3.18,3.18,0,0,1-1.54-.92l-48.27-51.44a3.28,3.28,0,1,1,4.78-4.48l48.26,51.44a3.27,3.27,0,0,1-3.23,5.4Z"/></g><g id="Group_192" data-name="Group 192"><line id="Line_33" data-name="Line 33" class="cls-5" x1="256.59" y1="201.17" x2="324.11" y2="180.73"/><path id="Path_506" data-name="Path 506" class="cls-4" d="M255.75,204.34a3.28,3.28,0,0,1-.11-6.3l67.52-20.44a3.27,3.27,0,0,1,1.89,6.26l-67.51,20.45A3.3,3.3,0,0,1,255.75,204.34Z"/></g><path id="Path_507" data-name="Path 507" class="cls-4" d="M307.48,186.85a3.28,3.28,0,0,1-2.31-4h0l26.69-99.7A9.09,9.09,0,0,0,325.44,72L222.79,44.54A9.09,9.09,0,0,0,211.67,51L206.89,68.8a3.27,3.27,0,0,1-6.32-1.7l4.77-17.84a15.65,15.65,0,0,1,19.14-11L327.13,65.69a15.65,15.65,0,0,1,11.06,19.14l-26.7,99.7A3.27,3.27,0,0,1,307.48,186.85Z"/><path id="Path_508" data-name="Path 508" class="cls-4" d="M180.41,155.06a3.28,3.28,0,0,1-2.32-4h0l15.7-58.64a3.28,3.28,0,0,1,6.33,1.69l-15.7,58.64a3.28,3.28,0,0,1-4,2.32Z"/><path id="Path_509" data-name="Path 509" class="cls-6" d="M253.48,141.5a7.77,7.77,0,0,1-4.42-3.13l-.08-.12-9.57-15.67a3.28,3.28,0,0,1,5.59-3.42l9.52,15.58a1.22,1.22,0,0,0,1.63.3l44-28.37a3.28,3.28,0,0,1,3.55,5.51h0l-44,28.37A7.79,7.79,0,0,1,253.48,141.5Z"/><path id="Path_510" data-name="Path 510" class="cls-7" d="M245.92,166.38A41,41,0,1,1,286,98.19a3.27,3.27,0,0,1-4.62,4.64l-.08-.08a34.48,34.48,0,1,0,9,31.1,3.28,3.28,0,0,1,6.43,1.28l0,.07a41.07,41.07,0,0,1-48.58,31.71C247.39,166.75,246.65,166.57,245.92,166.38Z"/><path id="Path_511" data-name="Path 511" class="cls-4" d="M312.62,283.64a3.18,3.18,0,0,1-1.77-1.19L241.11,190a3.84,3.84,0,0,0-4.55-1.23l-89.62,37.6a3.27,3.27,0,0,1-2.53-6L234,182.73a10.38,10.38,0,0,1,12.31,3.33l69.74,92.45a3.27,3.27,0,0,1-3.46,5.13Z"/></g></g><g id="Group_193" data-name="Group 193"><path class="cls-2" d="M18.63,109.61a2,2,0,0,1-2-2V98.67a2,2,0,0,1,4,0v8.94A2,2,0,0,1,18.63,109.61Z"/><path class="cls-2" d="M18.63,133.94a2,2,0,0,1-2-2V123a2,2,0,0,1,4,0v8.94A2,2,0,0,1,18.63,133.94Z"/><path class="cls-2" d="M35.27,117.31H26.33a2,2,0,1,1,0-4h8.94a2,2,0,1,1,0,4Z"/><path class="cls-2" d="M10.94,117.31H2a2,2,0,0,1,0-4h8.94a2,2,0,0,1,0,4Z"/></g><circle id="Ellipse_36" data-name="Ellipse 36" class="cls-8" cx="255.49" cy="124.55" r="38.27"/></g></g></g></svg>