<svg xmlns="http://www.w3.org/2000/svg" viewBox="0 0 277.27 213.65"><defs><style>.cls-1{fill:#efeff3;}.cls-2{fill:#202834;}.cls-3{fill:#ffa840;}.cls-4{fill:#fff;}.cls-5{fill:#2ec8c6;}.cls-6{fill:#9670a2;}.cls-7{fill:#20262f;}</style></defs><title>img-help</title><g id="Layer_2" data-name="Layer 2"><g id="Illustrations"><g id="let_us_help" data-name="let us help"><polygon class="cls-1" points="172.22 177.74 78.7 142.6 121.64 24.5 215.15 59.64 172.22 177.74"/><g id="Group_201" data-name="Group 201"><g id="Group_197" data-name="Group 197"><path class="cls-2" d="M152.09,213.65a22.24,22.24,0,0,1-7.64-1.36L75.27,187A22.35,22.35,0,0,1,62,158.36v0L114.48,14.67A22.35,22.35,0,0,1,143.12,1.36l69.19,25.29a22.33,22.33,0,0,1,13.31,28.62h0l-3,8.43A2.5,2.5,0,1,1,217.91,62l3-8.42v0h0a17.34,17.34,0,0,0-10.33-22.23L141.4,6.05a17.37,17.37,0,0,0-22.23,10.33L66.65,160.08v0A17.33,17.33,0,0,0,77,182.3l69.19,25.29a17.35,17.35,0,0,0,22.23-10.33l12.24-35.42a2.5,2.5,0,0,1,4.72,1.63l-12.25,35.47A22.4,22.4,0,0,1,152.09,213.65Z"/><path class="cls-2" d="M185.65,38.28a2.29,2.29,0,0,1-.88-.17L157.11,27.64A2.5,2.5,0,0,1,158.88,23l27.66,10.48a2.5,2.5,0,0,1-.89,4.84Z"/></g></g><path class="cls-3" d="M28.75,71.16a2,2,0,0,1-2-2v-9a2,2,0,0,1,4,0v9A2,2,0,0,1,28.75,71.16Z"/><path class="cls-3" d="M28.75,95.66a2,2,0,0,1-2-2v-9a2,2,0,0,1,4,0v9A2,2,0,0,1,28.75,95.66Z"/><path class="cls-3" d="M45.5,78.91h-9a2,2,0,0,1,0-4h9a2,2,0,0,1,0,4Z"/><path class="cls-3" d="M21,78.91H12a2,2,0,0,1,0-4h9a2,2,0,0,1,0,4Z"/><path class="cls-3" d="M214.75,186.16a2,2,0,0,1-2-2v-9a2,2,0,1,1,4,0v9A2,2,0,0,1,214.75,186.16Z"/><path class="cls-3" d="M214.75,210.66a2,2,0,0,1-2-2v-9a2,2,0,1,1,4,0v9A2,2,0,0,1,214.75,210.66Z"/><path class="cls-3" d="M231.5,193.91h-9a2,2,0,0,1,0-4h9a2,2,0,0,1,0,4Z"/><path class="cls-3" d="M207,193.91h-9a2,2,0,0,1,0-4h9a2,2,0,0,1,0,4Z"/><path class="cls-3" d="M70.25,24.66A1.63,1.63,0,0,1,68.62,23V16.79a1.63,1.63,0,1,1,3.26,0V23A1.63,1.63,0,0,1,70.25,24.66Z"/><path class="cls-3" d="M70.25,41.66A1.63,1.63,0,0,1,68.62,40V33.78a1.63,1.63,0,1,1,3.26,0V40A1.63,1.63,0,0,1,70.25,41.66Z"/><path class="cls-3" d="M81.87,30H75.63a1.63,1.63,0,1,1,0-3.26h6.24a1.63,1.63,0,0,1,0,3.26Z"/><path class="cls-3" d="M64.87,30H58.63a1.63,1.63,0,0,1,0-3.26h6.24a1.63,1.63,0,0,1,0,3.26Z"/><g id="Group_195" data-name="Group 195"><path id="Path_518" data-name="Path 518" class="cls-4" d="M76.5,159.41c0,17.34-16.56,31.4-37,31.4A41.6,41.6,0,0,1,18.13,185c-3.87,2.7-9.45,6.17-14,7.39a54.79,54.79,0,0,0,7.15-12.77A28.59,28.59,0,0,1,2.5,159.41c0-17.33,16.57-31.39,37-31.39S76.5,142.07,76.5,159.41Z"/><path class="cls-5" d="M69.5,160.16c0,16.57-14.77,30-33,30a34.34,34.34,0,0,1-25.16-10.59A28.32,28.32,0,0,1,3.5,160.16c0-16.57,14.77-30,33-30S69.5,143.59,69.5,160.16Z"/><polyline class="cls-5" points="5.7 190.16 19.5 183.16 12.5 178.16"/><path class="cls-2" d="M4.09,194.93a2.51,2.51,0,0,1-2-4,55.3,55.3,0,0,0,6.24-10.67A31,31,0,0,1,0,159.41c0-18.69,17.72-33.89,39.5-33.89S79,140.72,79,159.41s-17.72,33.9-39.5,33.9A44.08,44.08,0,0,1,18.26,188c-3.93,2.65-9.09,5.69-13.53,6.86A2.41,2.41,0,0,1,4.09,194.93Zm14-12.39a2.56,2.56,0,0,1,1.28.34,38.92,38.92,0,0,0,20.07,5.43c19,0,34.52-13,34.52-28.9s-15.48-28.89-34.5-28.89S5,143.48,5,159.41a26.23,26.23,0,0,0,8,18.49,2.51,2.51,0,0,1,.59,2.59,43,43,0,0,1-2.91,6.33c2.17-1.24,4.27-2.62,6-3.83A2.5,2.5,0,0,1,18.13,182.54Z"/><path class="cls-4" d="M53.08,169.24H15.79a2.5,2.5,0,1,1,0-5H53.08a2.5,2.5,0,0,1,0,5Z"/><path class="cls-4" d="M41.31,157.19H15.48a2.52,2.52,0,0,1,0-5H41.31a2.52,2.52,0,0,1,0,5Z"/><path class="cls-4" d="M56.5,157.16H50.34a2.5,2.5,0,0,1,0-5H56.5a2.5,2.5,0,0,1,0,5Z"/></g><g id="Group_195-2" data-name="Group 195"><path id="Path_518-2" data-name="Path 518" class="cls-6" d="M227.5,74c24.85,0,45,19.23,45,43a41.62,41.62,0,0,1-10.63,27.71c2.72,8.71,8.7,17.47,8.7,17.47-5.59-1.67-12.37-6.41-17.09-10.12a46.1,46.1,0,0,1-26,7.9c-24.85,0-45-19.23-45-43S202.65,74,227.5,74Z"/><path class="cls-2" d="M272.59,164.66a2.41,2.41,0,0,1-.64-.09c-6.13-1.62-13.34-5.93-18.7-9.58a59.26,59.26,0,0,1-28.76,7.45h-.37C194.83,162.44,171,142.05,171,117s23.83-45.46,53.13-45.46S277.27,91.91,277.27,117a41.55,41.55,0,0,1-11.57,28.31,75.27,75.27,0,0,0,8.88,15.35,2.5,2.5,0,0,1-2,4ZM224.13,76.52C197.59,76.52,176,94.67,176,117s21.59,40.46,48.13,40.46a54.06,54.06,0,0,0,28-7.55,2.49,2.49,0,0,1,2.7.1A96.89,96.89,0,0,0,266,156.83a62.63,62.63,0,0,1-5.54-11.31,2.49,2.49,0,0,1,.59-2.59c7.24-7.27,11.23-16.48,11.23-25.95C272.27,94.67,250.67,76.52,224.13,76.52Z"/></g><circle class="cls-7" cx="117" cy="177.66" r="9.5"/><path class="cls-4" d="M202.5,126.49h-6.36a2.5,2.5,0,0,1,0-5h6.36a2.5,2.5,0,0,1,0,5Z"/><path class="cls-4" d="M246.94,112.8h-50.8a2.5,2.5,0,0,1,0-5h50.8a2.5,2.5,0,0,1,0,5Z"/><path class="cls-4" d="M260.5,126.49H213.14a2.5,2.5,0,0,1,0-5H260.5a2.5,2.5,0,0,1,0,5Z"/></g></g></g></svg>