<svg xmlns="http://www.w3.org/2000/svg" viewBox="0 0 122.77 97.26"><defs><style>.cls-1{fill:#6f6f6f;}.cls-2{fill:#ffa840;}</style></defs><title>life-insurance_1</title><g id="Layer_2" data-name="Layer 2"><g id="Layer_1-2" data-name="Layer 1"><path class="cls-1" d="M63.43,97.26l-.87-.37A149.72,149.72,0,0,1,33.8,80.31C14.09,65.63,4.09,49.47,4.09,32.31A32.31,32.31,0,0,1,61.86,12.42a2.05,2.05,0,0,0,3.14,0,32.31,32.31,0,0,1,57.77,19.9c0,17.16-10,33.32-29.71,48h0A149.42,149.42,0,0,1,64.3,96.89ZM36.4,4.41A27.94,27.94,0,0,0,8.5,32.31C8.5,48,17.9,63,36.44,76.78a145.33,145.33,0,0,0,27,15.68,145.32,145.32,0,0,0,27-15.68C109,63,118.37,48,118.37,32.31a27.91,27.91,0,0,0-49.9-17.18,6.39,6.39,0,0,1-10.08,0A27.77,27.77,0,0,0,36.4,4.41Z"/><path class="cls-2" d="M101.58,50.24,59.06,54.31,50.83,70.4c-1.22,2.38-5.71,2.08-6.5-.47L30.48,22.4,22.69,46.31,1.37,48a.84.84,0,0,1-.3-1.63l18.59-4L29.4,15.8a2.33,2.33,0,0,1,4.41,0L48.62,58.1l4-9.7,48.87.76A.54.54,0,0,1,101.58,50.24Z"/><path class="cls-1" d="M45.5,69.81h-.14a2,2,0,0,1-1.76-1.38L31.47,30.8,25.6,48.85a2,2,0,0,1-1.91,1.38H2a2,2,0,0,1,0-4H22.24L29.58,23.7a2,2,0,0,1,1.9-1.39h0a2,2,0,0,1,1.9,1.39L45.88,62.48l7.39-15.12a2,2,0,0,1,1.79-1.13h46.6a2,2,0,0,1,0,4H56.31l-9,18.46A2,2,0,0,1,45.5,69.81Z"/></g></g></svg>