<svg xmlns="http://www.w3.org/2000/svg" viewBox="0 0 120.13 120.13"><defs><style>.cls-1{fill:#ffa840;}.cls-2{fill:#6f6f6f;}</style></defs><title>motor-insurance_1</title><g id="Layer_2" data-name="Layer 2"><g id="Layer_1-2" data-name="Layer 1"><circle class="cls-1" cx="64.39" cy="60.18" r="7.16"/><path class="cls-2" d="M117.93,60.07h-2.21a55.65,55.65,0,1,1-16.3-39.36,55.45,55.45,0,0,1,16.3,39.36h4.41a60.07,60.07,0,1,0-60.06,60.06,60.06,60.06,0,0,0,60.06-60.06Z"/><path class="cls-2" d="M94.79,60.07h-2.2a32.52,32.52,0,1,1-9.53-23,32.44,32.44,0,0,1,9.53,23H97A36.93,36.93,0,1,0,60.07,97,36.92,36.92,0,0,0,97,60.07Z"/><path class="cls-2" d="M50.51,60.07h2.21a7.34,7.34,0,1,1,2.15,5.19,7.33,7.33,0,0,1-2.15-5.19H48.31A11.76,11.76,0,1,0,60.07,48.31,11.75,11.75,0,0,0,48.31,60.07Z"/><path class="cls-2" d="M86.33,38.93l2.15-1.73a36.28,36.28,0,0,0-3.43-3.69,6.23,6.23,0,0,0-4.29-1.71,6.1,6.1,0,0,0-4.35,1.8h0l-6.57,6.57a.6.6,0,0,1-.45.2.79.79,0,0,1-.5-.2L68.76,40a.66.66,0,0,1-.06-.29V29.88A6.23,6.23,0,0,0,67,25.66,6.31,6.31,0,0,0,63,23.71q-1.44-.12-2.91-.12-1.05,0-2.07.06a6.17,6.17,0,0,0-5.83,6.17v9.87a.69.69,0,0,1-.05.29.7.7,0,0,1-.25.27.74.74,0,0,1-.39.12.6.6,0,0,1-.45-.2l-6.92-6.93a6.18,6.18,0,0,0-4.36-1.8,6.3,6.3,0,0,0-4.22,1.64,37.41,37.41,0,0,0-3.48,3.64,6.07,6.07,0,0,0-1.4,3.88A6.2,6.2,0,0,0,32.47,45l6.87,6.87a.55.55,0,0,1,.2.44.76.76,0,0,1-.2.51l-.19.13a.58.58,0,0,1-.28.06H29.79a6.12,6.12,0,0,0-4.31,1.75A6.22,6.22,0,0,0,23.61,59c0,.35,0,.7,0,1.06A36.35,36.35,0,0,0,23.8,64a6.25,6.25,0,0,0,2,3.94A6.17,6.17,0,0,0,30,69.53h8.92a.69.69,0,0,1,.29,0,.59.59,0,0,1,.26.24.77.77,0,0,1,.12.4.58.58,0,0,1-.2.45L33.6,76.41a6.1,6.1,0,0,0-1.8,4.35,6.25,6.25,0,0,0,1.71,4.29,35.09,35.09,0,0,0,3.69,3.42A6,6,0,0,0,41,89.81,6.21,6.21,0,0,0,45.4,88L51,82.36a.57.57,0,0,1,.45-.2.74.74,0,0,1,.5.2l.14.18a.69.69,0,0,1,.05.29v7.48A6.17,6.17,0,0,0,58,96.48q1,.06,2.07.06,1.47,0,2.91-.12a6.26,6.26,0,0,0,4.06-2,6.18,6.18,0,0,0,1.66-4.22V82.83a.66.66,0,0,1,.06-.29.61.61,0,0,1,.24-.27.72.72,0,0,1,.39-.11.57.57,0,0,1,.45.2l5.3,5.3a6.2,6.2,0,0,0,4.39,1.82,6.07,6.07,0,0,0,3.88-1.4,37.41,37.41,0,0,0,3.64-3.48,6.3,6.3,0,0,0,1.64-4.22A6.18,6.18,0,0,0,86.89,76l-5.36-5.35a.6.6,0,0,1-.2-.45.77.77,0,0,1,.2-.5l.19-.14a.69.69,0,0,1,.29,0h8.17A6.2,6.2,0,0,0,96.33,64a36.35,36.35,0,0,0,.21-3.92c0-.35,0-.71,0-1.07h0a6.22,6.22,0,0,0-1.87-4.26A6.12,6.12,0,0,0,90.34,53H82a.66.66,0,0,1-.29-.06.56.56,0,0,1-.27-.24.75.75,0,0,1-.12-.4.58.58,0,0,1,.2-.44L88,45.4A6.21,6.21,0,0,0,89.81,41a6,6,0,0,0-1.33-3.8l-2.15,1.73-2.14,1.73a.55.55,0,0,1,.11.34.7.7,0,0,1-.21.5L77.64,48a6.12,6.12,0,0,0-1.82,4.34,6.24,6.24,0,0,0,1.68,4.27,6,6,0,0,0,2,1.41,6.26,6.26,0,0,0,2.53.53h8.33a.6.6,0,0,1,.46.19.63.63,0,0,1,.21.48h0c0,.28,0,.57,0,.88a30.68,30.68,0,0,1-.18,3.33.66.66,0,0,1-.23.44.6.6,0,0,1-.44.18H82a6.14,6.14,0,0,0-5.23,2.87,6.27,6.27,0,0,0-1,3.33,6.14,6.14,0,0,0,1.82,4.35L83,79.92a.66.66,0,0,1,.19.46.74.74,0,0,1-.21.51,30.87,30.87,0,0,1-3.09,3,.5.5,0,0,1-.35.12.68.68,0,0,1-.49-.21l-5.3-5.3a6.09,6.09,0,0,0-4.35-1.81,6.23,6.23,0,0,0-4.26,1.68,6,6,0,0,0-1.41,2,6.21,6.21,0,0,0-.53,2.52v7.42a.63.63,0,0,1-.18.45.75.75,0,0,1-.48.23c-.81.06-1.64.1-2.46.1-.59,0-1.18,0-1.76,0a.62.62,0,0,1-.44-.21.66.66,0,0,1-.19-.46V82.83a6.21,6.21,0,0,0-.53-2.52,6.07,6.07,0,0,0-2.34-2.7,6.27,6.27,0,0,0-3.33-1,6.09,6.09,0,0,0-4.35,1.81L41.5,84.09a.7.7,0,0,1-.5.21.55.55,0,0,1-.34-.11,32,32,0,0,1-3.14-2.91.74.74,0,0,1-.21-.52.63.63,0,0,1,.19-.46l5.74-5.73A6.19,6.19,0,0,0,43.37,66,6.13,6.13,0,0,0,38.87,64H30a.6.6,0,0,1-.44-.18.66.66,0,0,1-.23-.44,30.68,30.68,0,0,1-.18-3.33c0-.3,0-.6,0-.89a.63.63,0,0,1,.21-.48.6.6,0,0,1,.46-.19h9.08A6.25,6.25,0,0,0,41.39,58a6.13,6.13,0,0,0,2.7-2.34,6.28,6.28,0,0,0,1-3.34A6.15,6.15,0,0,0,43.24,48l-6.87-6.87a.68.68,0,0,1-.21-.49.57.57,0,0,1,.12-.35,30.87,30.87,0,0,1,3-3.09.74.74,0,0,1,.51-.21.66.66,0,0,1,.46.19l6.92,6.92a6.14,6.14,0,0,0,4.35,1.82,6.28,6.28,0,0,0,4.26-1.68,6.16,6.16,0,0,0,1.41-2,6.3,6.3,0,0,0,.53-2.53V29.82a.66.66,0,0,1,.19-.46.62.62,0,0,1,.44-.21c.58,0,1.16,0,1.76,0,.83,0,1.65,0,2.46.1a.75.75,0,0,1,.48.23.63.63,0,0,1,.18.45v9.81a6.3,6.3,0,0,0,.53,2.53,6.1,6.1,0,0,0,2.34,2.69,6.15,6.15,0,0,0,7.68-.85L80.3,37.5h0a.56.56,0,0,1,.45-.19.74.74,0,0,1,.52.21,32,32,0,0,1,2.91,3.14Z"/></g></g></svg>