<svg xmlns="http://www.w3.org/2000/svg" viewBox="0 0 126.66 92.82"><defs><style>.cls-1{fill:#ffa840;}.cls-2{fill:#6f6f6f;}</style></defs><title>motor-insurance</title><g id="Layer_2" data-name="Layer 2"><g id="Layer_1-2" data-name="Layer 1"><circle class="cls-1" cx="28.38" cy="75.43" r="12.71"/><circle class="cls-1" cx="112.11" cy="75.43" r="12.71"/><path class="cls-2" d="M108.88,57.27a17.8,17.8,0,0,0-5.95,1l-1.74-3.57a21.71,21.71,0,0,1,22.06,4,2,2,0,1,0,2.62-3,25.73,25.73,0,0,0-19.78-6.27l-15-22.47V15.8a2,2,0,0,0-2-2H81.3L75.11,1.11A2,2,0,0,0,73.34,0h-7.9a2,2,0,1,0,0,4H72.1l4.8,9.87H73.34a2,2,0,0,0-2,2V27.65a2,2,0,0,0,.59,1.4h0c9.6,9.45,9.29,24.05,9.29,24.2v.06A11.86,11.86,0,0,1,69.39,65.17H55.56a11.85,11.85,0,0,1,0-23.7,5.93,5.93,0,1,0,0-11.85H12.11a5.93,5.93,0,0,0,0,11.85h3A31.51,31.51,0,0,0,1.45,60,39.34,39.34,0,0,0,.29,75.36a2,2,0,0,0,2,1.66h6A17.77,17.77,0,0,0,43.6,77H85.18a2,2,0,0,0,2-2A21.81,21.81,0,0,1,97.64,56.45L99.38,60a17.77,17.77,0,1,0,9.5-2.76ZM75.31,17.77H87.16v7.9H75.31ZM12.11,37.52a2,2,0,0,1,0-4H55.56a2,2,0,1,1,0,4ZM5.25,61.07c2.68-9.58,9.09-16.17,19-19.6H45.12a15.8,15.8,0,0,0-5.23,9.89H25.94A23.71,23.71,0,0,0,4.37,65.25,34,34,0,0,1,5.25,61.07Zm20.69,27.8A13.84,13.84,0,0,1,12.26,77H39.62A13.84,13.84,0,0,1,25.94,88.87ZM98.18,51.7A25.76,25.76,0,0,0,83.29,73.07h-77A19.77,19.77,0,0,1,25.94,55.3H39.76l.13,0A15.82,15.82,0,0,0,55.56,69.12H69.39A15.81,15.81,0,0,0,85.18,53.35c0-.93.21-13.53-7.5-23.73h10.4l13.81,20.72A26.64,26.64,0,0,0,98.18,51.7Zm10.7,37.17a13.82,13.82,0,0,1-7.76-25.26l6,12.3A2,2,0,0,0,108.88,77a1.94,1.94,0,0,0,.87-.2,2,2,0,0,0,.91-2.64l-6-12.3a13.69,13.69,0,0,1,4.21-.66,13.83,13.83,0,1,1,0,27.65Z"/></g></g></svg>