<svg xmlns="http://www.w3.org/2000/svg" viewBox="0 0 131.83 84.29"><defs><style>.cls-1{fill:#ffa840;}.cls-2{fill:#6f6f6f;}</style></defs><title>notice-announcement</title><g id="Layer_2" data-name="Layer 2"><g id="Layer_1-2" data-name="Layer 1"><polygon class="cls-1" points="34.72 24.48 9.92 24.48 9.92 61.59 34.72 61.59 34.72 26.32 34.72 24.48"/><path class="cls-2" d="M106.55,42.15A25.2,25.2,0,0,1,96.18,62.53,24,24,0,0,1,91,65.46V59.72a20.21,20.21,0,0,0,5.18-4.11,20.06,20.06,0,0,0,0-26.93A20.21,20.21,0,0,0,91,24.57V18.83a24,24,0,0,1,5.18,2.93A25.21,25.21,0,0,1,106.55,42.15Z"/><path class="cls-2" d="M109.08,27.2a21.14,21.14,0,0,1,0,29.89,2.2,2.2,0,0,0,3.12,3.11,25.53,25.53,0,0,0,0-36.11,2.2,2.2,0,0,0-3.12,3.11Z"/><path class="cls-2" d="M118.15,19.79a31.59,31.59,0,0,1,0,44.71,2.21,2.21,0,0,0,3.12,3.12,36,36,0,0,0,0-50.95,2.21,2.21,0,0,0-3.12,3.12Z"/><path class="cls-2" d="M86.45,81.87l.83-2L38.57,60V24.34L87.28,4.46l.25,0A.67.67,0,0,1,88,4.6a.59.59,0,0,1,.19.46V79.23a.59.59,0,0,1-.19.46.67.67,0,0,1-.45.19l-.25,0-.83,2-.83,2a4.93,4.93,0,0,0,1.91.38,5.05,5.05,0,0,0,5-5.06V5.06a5.05,5.05,0,0,0-5-5.06,5,5,0,0,0-1.92.38L35.54,20.82a2.2,2.2,0,0,0-1.37,2V61.43a2.2,2.2,0,0,0,1.37,2L85.61,83.91Z"/><path class="cls-2" d="M7.44,61.59v2.2H36.37a2.19,2.19,0,0,0,2.2-2.2V23a2.2,2.2,0,0,0-2.2-2.2H7.44A7.44,7.44,0,0,0,0,28.25v28.1a7.44,7.44,0,0,0,7.44,7.44V59.38a3,3,0,0,1-3-3V28.25a3,3,0,0,1,3-3H34.17V59.38H7.44Z"/><path class="cls-2" d="M17.7,61.62a16.22,16.22,0,0,0-.45,3.8,16.92,16.92,0,0,0,4.46,11.32A15.92,15.92,0,0,0,26,80.12a10.58,10.58,0,0,0,4.85,1.31,2.21,2.21,0,0,0,0-4.41,6.27,6.27,0,0,1-2.8-.8,12.57,12.57,0,0,1-6.4-10.8A11.92,11.92,0,0,1,22,62.63a2.2,2.2,0,1,0-4.29-1Z"/></g></g></svg>