<svg xmlns="http://www.w3.org/2000/svg" viewBox="0 0 108.58 128.16"><defs><style>.cls-1{fill:#ffa840;}.cls-2{fill:#6f6f6f;}</style></defs><title>personal-accident</title><g id="Layer_2" data-name="Layer 2"><g id="Layer_1-2" data-name="Layer 1"><g id="PA"><polygon class="cls-1" points="22.66 76.34 42.81 102.78 42.81 126.9 61.69 126.7 61.69 104.04 36.84 71.63 22.66 76.34"/><path class="cls-2" d="M106.07,128.16h-12a2.52,2.52,0,0,1,0-5h9.45V97.88c0-13.21-12.08-21.51-36.92-25.4A2.53,2.53,0,0,1,64.5,70V62.3a2.52,2.52,0,0,1,1.65-2.36c9.73-3.59,15.09-9.39,15.09-20.9V30.41C81.24,15.71,70.57,5,55.87,5S30.5,15.71,30.5,30.41V39c0,11.51,5.36,17.31,15.08,20.9a2.52,2.52,0,0,1,1.65,2.36V70a2.52,2.52,0,0,1-2.07,2.48c-9.09,1.63-16.64,3.81-22.34,6.41a2,2,0,0,1-.4.29l-6.31,3.71C11.19,86.55,5,93.17,5,103.39V123.1H71.3A1.65,1.65,0,0,0,73,121.45V108.06a1.65,1.65,0,0,0-1.65-1.65H61.69a2.52,2.52,0,0,1,0-5H71.3A6.7,6.7,0,0,1,78,108.06v13.39a6.7,6.7,0,0,1-6.69,6.69H2.52A2.52,2.52,0,0,1,0,125.62V103.39C0,91.8,6.45,84.13,12.07,79.66a2.27,2.27,0,0,1,.45-.48c6.08-4.86,16.05-8.65,29.67-11.28V64C31.53,59.36,25.46,52,25.46,39V30.41C25.46,13.07,38.53,0,55.87,0s30.4,13.07,30.4,30.41V39c0,12.92-6.07,20.32-16.73,25v3.85c25.91,4.47,39,14.57,39,30v27.76A2.51,2.51,0,0,1,106.07,128.16Z"/><path class="cls-2" d="M61.5,127.17H36.67a2.52,2.52,0,0,1-2.52-2.52V106.11l-18.3-23.2a2.52,2.52,0,1,1,4.38-2.5l18.62,23.78a2.5,2.5,0,0,1,.34,1.25v16.7H59V104.58L36.35,75.48a2.52,2.52,0,1,1,4.32-2.58l23,29.7a2.52,2.52,0,0,1,.35,1.29v20.76A2.52,2.52,0,0,1,61.5,127.17Z"/><path class="cls-2" d="M36.51,107.82H26.44a2.52,2.52,0,0,1,0-5H36.51a2.52,2.52,0,1,1,0,5Z"/></g></g></g></svg>