<?xml version="1.0" encoding="UTF-8"?>
<svg id="Layer_1" data-name="Layer 1" xmlns="http://www.w3.org/2000/svg" viewBox="0 0 184.61 185.79">
  <defs>
    <style>
      .cls-1, .cls-2 {
        stroke-width: 6px;
      }

      .cls-1, .cls-2, .cls-3 {
        fill: none;
        stroke: #6f6f6f;
      }

      .cls-1, .cls-3 {
        stroke-miterlimit: 10;
      }

      .cls-2 {
        stroke-linecap: round;
        stroke-linejoin: round;
      }

      .cls-3 {
        stroke-width: 5px;
      }

      .cls-4 {
        fill: #ffa841;
        stroke-width: 0px;
      }
    </style>
  </defs>
  <g>
    <path class="cls-4" d="M158.42,125.39l17.09-2.64c2.81-.43,5.03,2.33,4,4.98l-9.2,23.68c-.32.83-1.49.86-1.85.04l-10.81-24.67c-.26-.6.11-1.29.76-1.39Z"/>
    <path class="cls-4" d="M135.95,110.5l-10.09-12.56c-1.66-2.06-4.92-1.56-5.88.91l-8.57,22.05c-.3.77.49,1.52,1.24,1.19l22.94-10.15c.56-.25.73-.96.35-1.43Z"/>
    <path class="cls-1" d="M171.09,149.42l10.26-26.41c1.05-2.7-1.22-5.51-4.07-5.07l-18.72,2.89c-3.38-3-7.34-5.49-11.83-7.24s-9.1-2.57-13.61-2.64l-11.86-14.76c-1.81-2.25-5.38-1.7-6.43.99l-10.26,26.41c-2.39,2.82-4.37,6.05-5.77,9.67-7.13,18.37,2.76,39.35,22.09,46.86,19.34,7.51,40.8-1.29,47.93-19.66,1.4-3.62,2.13-7.33,2.27-11.03Z"/>
    <path class="cls-2" d="M140.11,166.87c-1.31,3.37-5.11,5.04-8.48,3.74-3.37-1.31-5.05-5.11-3.74-8.48l1.19-3.06h-.04s-1.19,3.05-1.19,3.05c-1.31,3.37-5.11,5.04-8.48,3.74s-5.04-5.11-3.74-8.48h-.04c-1.32,3.37.37,7.2,3.76,8.52,3.33,1.29,7.07-.32,8.45-3.59-1.19,3.34.48,7.06,3.81,8.35,3.39,1.32,7.21-.37,8.53-3.76h-.04Z"/>
    <path class="cls-4" d="M134.13,157.27c-.58,1.49-3.38,3.33-5.6,2.47s-3.05-4.12-2.47-5.6,2.85-1.99,5.08-1.12,3.57,2.77,2.99,4.26Z"/>
    <path class="cls-1" d="M137.29,155.45c-.95,2.9-5.68,4.59-8.22,3.6-3.26-1.27-4.45-6.02-3.61-8.2s4.17-2.91,7.43-1.64c1.93.75,4,2.28,4.48,4.41.15.65.1,1.26-.08,1.83Z"/>
    <g>
      <path class="cls-2" d="M154.03,162.27l-.03-.03c6.29-5.05,15.52-4.05,20.56,2.24l-.03.03c-5.04-6.27-14.24-7.27-20.51-2.24Z"/>
      <path class="cls-2" d="M170.37,177.18c-3.24-7.36-11.87-10.71-19.23-7.47l-.02-.03c7.38-3.25,16.03.1,19.28,7.49l-.03.02Z"/>
      <path class="cls-2" d="M108.48,144.58c-1.22-7.95-8.69-13.42-16.64-12.19v-.04c7.97-1.23,15.45,4.25,16.68,12.23h-.04Z"/>
      <path class="cls-2" d="M105.59,152.02c-3.24-7.36-11.87-10.71-19.23-7.47l-.02-.03c7.38-3.25,16.03.11,19.28,7.49l-.03.02Z"/>
    </g>
  </g>
  <g>
    <path class="cls-4" d="M99.83,18.8c-2.37-4.68-5.72-8.71-9.8-11.86,10.04.84,21.01,4.65,27.51,8.89,12.91,8.42,14.81,13.66,8.49,23.36-2.63,4.03-6.7,6.81-11.8,8.07l-14.4-28.46Z"/>
    <path class="cls-4" d="M32.16,64.55c-5.17.91-10.02,0-14.05-2.62-9.7-6.33-10.07-11.89-1.66-24.8,4.24-6.5,12.73-14.41,21.58-19.23-2.46,4.52-3.9,9.56-4.18,14.8l-1.69,31.85Z"/>
    <path class="cls-4" d="M79.11,74.54c.54,2.55-1.64,7.59-5.48,8.4-3.83.81-7.86-2.92-8.4-5.48s2.13-5.28,5.96-6.09,7.37.61,7.91,3.16Z"/>
    <path class="cls-1" d="M29.49,79.05c-.6,11.27,6.36,21.95,17.24,24.97,3.69,1.02,7.67,1.2,11.67.36,7.91-1.67,14.11-6.97,17.28-13.78,5.64,4.95,13.45,7.3,21.37,5.63,4-.84,7.57-2.61,10.53-5.04,8.73-7.15,10.79-19.73,5.7-29.8l-20.62-40.77C86.09,7.64,71.61.69,57.38,3.69h-.02c-14.24,3-24.68,15.2-25.45,29.73l-2.42,45.63Z"/>
    <rect class="cls-1" x="74.84" y="82.76" width=".05" height="7.92" transform="translate(-16.27 17.3) rotate(-11.9)"/>
    <path class="cls-1" d="M123.64,41.28c7.44-11.42,4.41-18.26-9.3-27.19-9.76-6.37-27.18-11.01-39.1-9.04,7.36,2.76,13.67,8.18,17.41,15.58l15.35,30.34c6.45-1.04,12.13-4.3,15.64-9.69Z"/>
    <path class="cls-1" d="M41.56,12.14c-11.7,3.01-25.76,14.28-32.13,24.05C.49,49.89.47,57.37,11.89,64.82c5.39,3.51,11.9,4.21,18.22,2.56l1.8-33.96c.44-8.27,4.02-15.78,9.65-21.28Z"/>
    <path class="cls-3" d="M81.24,69.25c.37,1.41.26,2.96-.2,4.41-1.27,3.95-5.33,7.86-9.71,7.4-3.88-.42-8.54-3.74-9.39-7.74-.75-3.56,2.97-7.35,8.3-8.48,2.9-.61,6.95-.59,9.29,1.56.87.8,1.43,1.79,1.7,2.85Z"/>
  </g>
</svg>