<svg xmlns="http://www.w3.org/2000/svg" viewBox="0 0 38.2 33.42"><defs><style>.cls-1{fill:#ffa840;}.cls-2{fill:#6f6f6f;}</style></defs><title>premier-insurance</title><g id="Layer_2" data-name="Layer 2"><g id="Layer_1-2" data-name="Layer 1"><g id="premier-insurance"><path id="Path_443" data-name="Path 443" class="cls-1" d="M24.27,26.76,31.63,9.24,26.12.74h4.07L37,8.08l-.43,2.31Z"/><path id="Path_444" data-name="Path 444" class="cls-2" d="M.71,9.6A.69.69,0,0,1,0,8.92a.78.78,0,0,1,.16-.47L6.87.29a.71.71,0,0,1,1-.09.7.7,0,0,1,.09,1L1.26,9.35A.68.68,0,0,1,.71,9.6Z"/><path id="Path_445" data-name="Path 445" class="cls-2" d="M19.11,33.42a.7.7,0,0,1-.55-.27L.16,9.67A.71.71,0,0,1,1.27,8.8L19.11,31.57,36.61,8.91,30.48,1.45H7.42A.71.71,0,0,1,6.71.74.7.7,0,0,1,7.42,0H30.81a.69.69,0,0,1,.54.25l6.7,8.16a.69.69,0,0,1,0,.88L19.67,33.15A.71.71,0,0,1,19.11,33.42Z"/><path id="Path_446" data-name="Path 446" class="cls-2" d="M19.05,33.35a.58.58,0,0,1-.26-.06.7.7,0,0,1-.38-.92L28,9.32,22.32,1.14a.71.71,0,0,1,.11-1,.71.71,0,0,1,1,.12l.05.07,5.89,8.52a.72.72,0,0,1,.07.67L19.72,32.91A.72.72,0,0,1,19.05,33.35Z"/><path id="Path_447" data-name="Path 447" class="cls-2" d="M33.16,9.94H1.07a.7.7,0,0,1-.71-.7.71.71,0,0,1,.71-.71H33.16a.71.71,0,0,1,.71.71A.7.7,0,0,1,33.16,9.94Z"/><path id="Path_448" data-name="Path 448" class="cls-2" d="M19.05,33.35a.74.74,0,0,1-.65-.44L8.69,9.51a.72.72,0,0,1,.07-.67l5.9-8.5a.7.7,0,0,1,1-.12.71.71,0,0,1,.17.92L10.14,9.32l9.58,23a.72.72,0,0,1-.67,1Z"/></g></g></g></svg>