<svg xmlns="http://www.w3.org/2000/svg" viewBox="0 0 102.47 97.63"><defs><style>.cls-1{fill:#ffa840;}.cls-2{fill:#6f6f6f;}</style></defs><title>savings-investment</title><g id="Layer_2" data-name="Layer 2"><g id="Layer_1-2" data-name="Layer 1"><path class="cls-1" d="M7.18,60.5c11.23,18,26.08,14.07,31,12.09C36,68.29,28.22,57.31,7.18,60.5Z"/><path class="cls-1" d="M58,87.33c6.94,1.28,32.16,3.47,42.77-29C66.37,60.26,59.31,81.06,58,87.33Z"/><path class="cls-2" d="M55.64,33.39A8.7,8.7,0,0,0,53,30.9a12.15,12.15,0,0,0-4-1.52V16.81a5.27,5.27,0,0,1,1.46.67A8,8,0,0,1,52.15,19a5.58,5.58,0,0,1,1,1.82,8.62,8.62,0,0,1,.42,2,1.39,1.39,0,0,0,1.59,1.38c.75-.09,1.3-.65,1.5-1.71a8.63,8.63,0,0,0-2.46-6.2A9.55,9.55,0,0,0,49,13.76V11.67a1.76,1.76,0,0,0-.63-1.38,1.82,1.82,0,0,0-2.43.05,1.79,1.79,0,0,0-.53,1.33v1.88a13.62,13.62,0,0,0-3.72.81,10,10,0,0,0-3.44,2.1,9,9,0,0,0-2.11,3.11,8.36,8.36,0,0,0-.53,3.82,9.05,9.05,0,0,0,3.08,6A12.21,12.21,0,0,0,45.38,32V44a10.07,10.07,0,0,1-5.3-1.69A6.57,6.57,0,0,1,37.5,38.5a1.53,1.53,0,0,0-1.61-1.33,1.4,1.4,0,0,0-1.22.44,1.29,1.29,0,0,0-.23,1.2,8.73,8.73,0,0,0,4,6,14.89,14.89,0,0,0,7,2.12v1.74A1.73,1.73,0,0,0,46,50a1.88,1.88,0,0,0,1.18.43,2,2,0,0,0,1.2-.41A1.68,1.68,0,0,0,49,48.67V46.89a8.92,8.92,0,0,0,5.78-2.57A8.13,8.13,0,0,0,57,39.38a10.35,10.35,0,0,0-.16-3A8.29,8.29,0,0,0,55.64,33.39ZM45.38,28.9a10.31,10.31,0,0,1-2.88-.85,9.18,9.18,0,0,1-2.21-1.5A4.38,4.38,0,0,1,39.23,25a7.36,7.36,0,0,1-.39-1.76,6,6,0,0,1,1.73-4.64,7.48,7.48,0,0,1,4.81-2.07ZM54,39.31a3.8,3.8,0,0,1-.25,1.17,4.79,4.79,0,0,1-.78,1.45,5.85,5.85,0,0,1-1.71,1.32A6.64,6.64,0,0,1,49,43.9V32.49a7,7,0,0,1,3.67,2A6.84,6.84,0,0,1,54,39.29Z"/><path class="cls-2" d="M61.35,89.81a38.19,38.19,0,0,1-9.21-1,2,2,0,0,1-1.45-2.12c0-.33,3.81-33.3,49.73-34.49a1.94,1.94,0,0,1,1.63.77,2,2,0,0,1,.34,1.78C93.74,85,73.32,89.81,61.35,89.81ZM55,85.33c6.94,1.28,32.16,3.47,42.77-29C63.37,58.26,56.31,79.06,55,85.33Z"/><path class="cls-2" d="M27,81.24C18.81,81.24,8.33,77.74.25,63a2,2,0,0,1,1.36-2.92C33,53.79,40.67,75.74,40.74,76a2,2,0,0,1-1,2.4A30.1,30.1,0,0,1,27,81.24ZM5.18,63.5c11.23,18,26.08,14.07,31,12.09C34,71.29,26.22,60.31,5.18,63.5Z"/><path class="cls-2" d="M45.72,60.32A30.16,30.16,0,1,1,75.88,30.16,30.19,30.19,0,0,1,45.72,60.32ZM45.72,4A26.16,26.16,0,1,0,71.88,30.16,26.19,26.19,0,0,0,45.72,4Z"/><path class="cls-2" d="M77.64,97.63h-46a2,2,0,0,1,0-4h46a2,2,0,0,1,0,4Z"/><line class="cls-2" x1="45.64" y1="58.63" x2="45.64" y2="95.63"/><path class="cls-2" d="M45.64,97.63a2,2,0,0,1-2-2v-37a2,2,0,0,1,4,0v37A2,2,0,0,1,45.64,97.63Z"/></g></g></svg>