<svg xmlns="http://www.w3.org/2000/svg" viewBox="0 0 113.06 110.09"><defs><style>.cls-1{fill:#202834}</style></defs><g id="Layer_2" data-name="Layer 2"><g id="Layer_19" data-name="Layer 19"><path class="cls-1" d="M44.92 10a34.92 34.92 0 0 1 0 69.83 34.92 34.92 0 1 1 0-69.83m0-10a44.92 44.92 0 1 0 44.91 44.92A44.92 44.92 0 0 0 44.92 0z"/><path class="cls-1" d="M90 75.77h11.93a2.63 2.63 0 0 1 2.63 2.63v29.12a2.62 2.62 0 0 1-2.62 2.62H90a2.62 2.62 0 0 1-2.62-2.62V78.39A2.62 2.62 0 0 1 90 75.77z" transform="rotate(-45 95.92 92.948)"/></g></g></svg>