<svg xmlns="http://www.w3.org/2000/svg" viewBox="0 0 109.94 98.61"><defs><style>.cls-1{fill:#ffa840;}.cls-2{fill:#6f6f6f;}</style></defs><title>student-education</title><g id="Layer_2" data-name="Layer 2"><g id="Layer_1-2" data-name="Layer 1"><polygon class="cls-1" points="16.42 26.97 64.64 6.03 107.62 26.97 63.54 50.12 16.42 26.97"/><path class="cls-2" d="M28.43,43.29,50.91,53.92l0,0a10.5,10.5,0,0,0,8.53,0l.05,0,47.66-22.66-1-2,.89,2a4.63,4.63,0,0,0,2.1-1.82,4.72,4.72,0,0,0,0-5,4.75,4.75,0,0,0-2.1-1.82l-.89,2,.94-2L60.79.7l0,0a8,8,0,0,0-6.67.1l1,2-.87-2-51.4,22-.08,0a4.63,4.63,0,0,0-2,1.82,4.75,4.75,0,0,0,0,4.83,4.62,4.62,0,0,0,2,1.81l1-2-1,1.94,12,6.47V57.83a2.18,2.18,0,0,0,.56,1.46,42.71,42.71,0,0,0,10.41,7.86,61.63,61.63,0,0,0,30.58,7.69,63.31,63.31,0,0,0,30.85-7.68,45.25,45.25,0,0,0,10.69-7.83,2.2,2.2,0,0,0,.59-1.5V35.25a2.21,2.21,0,0,0-4.41,0V57.83H96l-1.61-1.5.18.17-.18-.17h0l.18.17-.18-.17a42,42,0,0,1-9.89,7.14,59,59,0,0,1-28.42,7,57.13,57.13,0,0,1-28.41-7.12,45.46,45.46,0,0,1-7-4.85c-.77-.65-1.35-1.19-1.72-1.56l-.41-.42-.09-.1h0l-.95.86,1-.85h0l-.95.86,1-.85-1.65,1.46h2.2V36.36a2.19,2.19,0,0,0-1.16-1.94L4.64,27.32l-.06,0-.13-.11,0-.16,0-.17.13-.1-1-2,.87,2,51.39-22,.09,0a3.47,3.47,0,0,1,1.54-.35,3.61,3.61,0,0,1,1.44.3l.89-2-1,2,46.4,22,0,0,.13.11,0,.17,0,.17-.13.11-.06,0L57.64,49.94l1,2-.89-2a6.27,6.27,0,0,1-2.48.52,6.14,6.14,0,0,1-2.48-.53l-.89,2,.94-2L30.31,39.31a2.2,2.2,0,0,0-1.88,4Z"/><path class="cls-2" d="M34.24,94.12l2-.85L30.8,80.13a2.2,2.2,0,0,0-4.07,0L21.26,93.27l2,.85-2-1a4,4,0,0,0-.4,1.69A3.85,3.85,0,0,0,22,97.46a3.8,3.8,0,0,0,2.72,1.15h8.11a3.79,3.79,0,0,0,3.39-5.48l-2,1,2-.85-2,.85-2,1,.56-.28H32.2l.06.28.56-.28h0l-.44-.42a.56.56,0,0,0-.17.42h.61l-.44-.42.45.43V94.2a.65.65,0,0,0-.45.2l.45.43V94.2H24.71v.63l.45-.43a.65.65,0,0,0-.45-.2v.63l.45-.43-.44.42h.61a.56.56,0,0,0-.17-.42l-.44.42h0l.56.28.06-.28h-.62l.56.28.06-.13,3.44-8.26L32.2,95l.06.13Z"/><path class="cls-2" d="M31,81V40.46L51.79,30.05a2.21,2.21,0,1,0-2-3.95l-22,11a2.21,2.21,0,0,0-1.22,2V81A2.21,2.21,0,0,0,31,81Z"/></g></g></svg>