<svg xmlns="http://www.w3.org/2000/svg" viewBox="0 0 163.44 109.21"><defs><style>.cls-1{fill:#ffa840;}.cls-2{fill:#6f6f6f;}</style></defs><title>travel-insurance</title><g id="Layer_2" data-name="Layer 2"><g id="Layer_1-2" data-name="Layer 1"><polygon class="cls-1" points="85.66 37.04 56.58 7.26 62.49 3.97 108.23 27.83 85.66 37.04"/><path class="cls-2" d="M82.66,109.21a4.88,4.88,0,0,1-4.88-4.89v-.15l2.31-39.43L27.7,83.62a4.88,4.88,0,0,1-5.8-2L.65,51.81a4.87,4.87,0,0,1,2.57-7l9.38-3.38a4.94,4.94,0,0,1,3.47.06L40,52.09l104.92-37.8c4.47-1.71,13.93-2.61,17.47,6.34a12.39,12.39,0,0,1,0,10.11c-2.43,5.22-8.27,7.35-8.86,7.55l-41,14.77L98,101.67a4.88,4.88,0,0,1-3.09,3.42l-10.63,3.83A5,5,0,0,1,82.66,109.21ZM80.5,59.32a4.88,4.88,0,0,1,4.88,4.89v.15l-2.3,39.42L93,100.21l14.5-48.61a4.86,4.86,0,0,1,3.08-3.42L151.8,33.32c.09,0,4.29-1.52,5.82-4.82a7.31,7.31,0,0,0-.16-5.94c-2.46-6.24-9.92-3.66-10.76-3.35L41.59,57.08A4.8,4.8,0,0,1,38.13,57L14.24,46.41,5.48,49.57l20.72,29,52.65-19A4.67,4.67,0,0,1,80.5,59.32Z"/><path class="cls-2" d="M70.4,34.21a2.63,2.63,0,0,1-1.9-.81L45.44,9.31a2.67,2.67,0,0,1-.65-2.46A2.64,2.64,0,0,1,46.52,5L61.34.13a2.64,2.64,0,0,1,2,.17l47.61,25a2.63,2.63,0,0,1-2.44,4.65L61.92,5.47l-9.8,3.22L72.3,29.77a2.63,2.63,0,0,1-1.9,4.44Z"/></g></g></svg>